<svg width="326" height="424" viewBox="0 0 326 424" fill="none" xmlns="http://www.w3.org/2000/svg">
<g clip-path="url(#clip0_32_968)">
<path d="M105 37C135.36 37 165.72 37 197 37C197 39.31 197 41.62 197 44C199.64 44 202.28 44 205 44C205 46.64 205 49.28 205 52C207.64 52 210.28 52 213 52C213 54.31 213 56.62 213 59C215.64 59 218.28 59 221 59C221 61.64 221 64.28 221 67C223.64 67 226.28 67 229 67C229 69.31 229 71.62 229 74C231.97 74 234.94 74 238 74C238 93.47 238 112.94 238 133C240.97 133 243.94 133 247 133C247 135.31 247 137.62 247 140C249.64 140 252.28 140 255 140C255 157.49 255 174.98 255 193C252.36 193 249.72 193 247 193C247.031 194.702 247.031 194.702 247.062 196.438C247 200 247 200 246 201C243.329 201.141 240.676 201.042 238 201C238 203.31 238 205.62 238 208C235.03 208 232.06 208 229 208C229 217.9 229 227.8 229 238C226.36 238 223.72 238 221 238C221 240.64 221 243.28 221 246C218.69 246 216.38 246 214 246C214 248.31 214 250.62 214 253C211.03 253 208.06 253 205 253C205 250.36 205 247.72 205 245C207.64 245 210.28 245 213 245C213 242.36 213 239.72 213 237C215.31 237 217.62 237 220 237C219.995 236.127 219.99 235.253 219.984 234.354C219.967 231.124 219.955 227.894 219.945 224.665C219.94 223.265 219.933 221.865 219.925 220.466C219.912 218.458 219.907 216.449 219.902 214.441C219.897 213.232 219.892 212.022 219.886 210.776C220 208 220 208 221 207C223.333 206.959 225.667 206.958 228 207C228 204.69 228 202.38 228 200C231.3 200 234.6 200 238 200C238 197.69 238 195.38 238 193C240.64 193 243.28 193 246 193C246 178.15 246 163.3 246 148C243.36 148 240.72 148 238 148C238 152.95 238 157.9 238 163C232.39 163 226.78 163 221 163C221 165.31 221 167.62 221 170C218.36 170 215.72 170 213 170C213 172.64 213 175.28 213 178C210.36 178 207.72 178 205 178C205 180.31 205 182.62 205 185C202.36 185 199.72 185 197 185C197 187.64 197 190.28 197 193C194.36 193 191.72 193 189 193C189 195.31 189 197.62 189 200C186.36 200 183.72 200 181 200C181 202.31 181 204.62 181 207C178.36 207 175.72 207 173 207C173 219.54 173 232.08 173 245C158.15 245 143.3 245 128 245C128 225.2 128 205.4 128 185C130.64 185 133.28 185 136 185C136 182.36 136 179.72 136 177C138.31 177 140.62 177 143 177C143 174.69 143 172.38 143 170C145.31 170 147.62 170 150 170C150 167.69 150 165.38 150 163C152.31 163 154.62 163 157 163C157 160.36 157 157.72 157 155C159.64 155 162.28 155 165 155C165 152.69 165 150.38 165 148C167.64 148 170.28 148 173 148C173 145.36 173 142.72 173 140C175.64 140 178.28 140 181 140C181 137.69 181 135.38 181 133C183.31 133 185.62 133 188 133C188 121.12 188 109.24 188 97C185.69 97 183.38 97 181 97C181 94.36 181 91.72 181 89C178.36 89 175.72 89 173 89C173 86.36 173 83.72 173 81C158.15 81 143.3 81 128 81C128 83.64 128 86.28 128 89C125.69 89 123.38 89 121 89C121 91.64 121 94.28 121 97C118.36 97 115.72 97 113 97C113 103.93 113 110.86 113 118C99.47 118 85.94 118 72 118C72 132.85 72 147.7 72 163C69.36 163 66.72 163 64 163C64 158.05 64 153.1 64 148C61.36 148 58.72 148 56 148C56 162.52 56 177.04 56 192C58.64 192 61.28 192 64 192C64 194.64 64 197.28 64 200C66.97 200 69.94 200 73 200C73 202.31 73 204.62 73 207C75.64 207 78.28 207 81 207C81 216.9 81 226.8 81 237C83.97 237 86.94 237 90 237C90 239.64 90 242.28 90 245C92.31 245 94.62 245 97 245C97 247.64 97 250.28 97 253C94.36 253 91.72 253 89 253C89 250.69 89 248.38 89 246C86.36 246 83.72 246 81 246C81 243.36 81 240.72 81 238C78.03 238 75.06 238 72 238C72 228.1 72 218.2 72 208C69.03 208 66.06 208 63 208C63 205.69 63 203.38 63 201C61.2984 201.031 61.2984 201.031 59.5625 201.062C56 201 56 201 55 200C54.9591 197.667 54.9576 195.333 55 193C52.36 193 49.72 193 47 193C47 175.51 47 158.02 47 140C49.97 140 52.94 140 56 140C56 137.69 56 135.38 56 133C58.64 133 61.28 133 64 133C64 113.53 64 94.06 64 74C66.97 74 69.94 74 73 74C73 71.69 73 69.38 73 67C75.64 67 78.28 67 81 67C81 64.36 81 61.72 81 59C83.97 59 86.94 59 90 59C90 56.69 90 54.38 90 52C92.31 52 94.62 52 97 52C97 49.69 97 47.38 97 45C99.64 45 102.28 45 105 45C105 42.36 105 39.72 105 37Z" fill="#030303"/>
<path d="M97 253C99.64 253 102.28 253 105 253C105 255.31 105 257.62 105 260C110.28 260 115.56 260 121 260C121 262.64 121 265.28 121 268C140.8 268 160.6 268 181 268C181 265.36 181 262.72 181 260C186.28 260 191.56 260 197 260C197 282.11 197 304.22 197 327C199.64 327 202.28 327 205 327C205 329.31 205 331.62 205 334C210.28 334 215.56 334 221 334C221 336.64 221 339.28 221 342C226.61 342 232.22 342 238 342C238 344.31 238 346.62 238 349C240.64 349 243.28 349 246 349C246 351.64 246 354.28 246 357C250.29 357 254.58 357 259 357C259 359.31 259 361.62 259 364C261.64 364 264.28 364 267 364C267 370.6 267 377.2 267 384C190.77 384 114.54 384 36 384C36 377.4 36 370.8 36 364C38.64 364 41.28 364 44 364C44 361.69 44 359.38 44 357C47.96 357 51.92 357 56 357C56 354.36 56 351.72 56 349C58.64 349 61.28 349 64 349C64 346.36 64 343.72 64 341C69.61 341 75.22 341 81 341C81 338.69 81 336.38 81 334C86.28 334 91.56 334 97 334C97 331.36 97 328.72 97 326C99.31 326 101.62 326 104 326C104 304.22 104 282.44 104 260C101.69 260 99.38 260 97 260C97 257.69 97 255.38 97 253Z" fill="#030303"/>
<path d="M113 275C115.31 275 117.62 275 120 275C120 277.64 120 280.28 120 283C122.64 283 125.28 283 128 283C128 294.88 128 306.76 128 319C142.85 319 157.7 319 173 319C173 307.12 173 295.24 173 283C175.64 283 178.28 283 181 283C181 280.36 181 277.72 181 275C183.64 275 186.28 275 189 275C189 294.47 189 313.94 189 334C191.64 334 194.28 334 197 334C197 338.95 197 343.9 197 349C191.72 349 186.44 349 181 349C181 351.64 181 354.28 181 357C160.87 357 140.74 357 120 357C120 354.36 120 351.72 120 349C115.05 349 110.1 349 105 349C105 344.05 105 339.1 105 334C107.64 334 110.28 334 113 334C113 314.53 113 295.06 113 275Z" fill="#F7F7F7"/>
<path d="M47 140C49.64 140 52.28 140 55 140C55 140.33 55 140.66 55 141C52.69 141 50.38 141 48 141C48 157.83 48 174.66 48 192C50.31 192 52.62 192 55 192C55 177.48 55 162.96 55 148C55.33 148 55.66 148 56 148C56 162.52 56 177.04 56 192C58.64 192 61.28 192 64 192C64 194.64 64 197.28 64 200C66.97 200 69.94 200 73 200C73 202.31 73 204.62 73 207C75.64 207 78.28 207 81 207C81 216.9 81 226.8 81 237C83.97 237 86.94 237 90 237C90 239.64 90 242.28 90 245C92.31 245 94.62 245 97 245C97 247.64 97 250.28 97 253C94.36 253 91.72 253 89 253C89 250.69 89 248.38 89 246C86.36 246 83.72 246 81 246C81 243.36 81 240.72 81 238C78.03 238 75.06 238 72 238C72 228.1 72 218.2 72 208C69.03 208 66.06 208 63 208C63 205.69 63 203.38 63 201C61.2984 201.031 61.2984 201.031 59.5625 201.062C56 201 56 201 55 200C54.9591 197.667 54.9576 195.333 55 193C52.36 193 49.72 193 47 193C47 175.51 47 158.02 47 140Z" fill="#838383"/>
<path d="M246 133C246.33 133 246.66 133 247 133C247 135.31 247 137.62 247 140C249.64 140 252.28 140 255 140C255 157.49 255 174.98 255 193C252.36 193 249.72 193 247 193C247.021 194.134 247.041 195.269 247.062 196.438C247 200 247 200 246 201C243.329 201.141 240.676 201.042 238 201C238 203.31 238 205.62 238 208C235.03 208 232.06 208 229 208C229 217.9 229 227.8 229 238C226.36 238 223.72 238 221 238C221 240.64 221 243.28 221 246C218.69 246 216.38 246 214 246C214 248.31 214 250.62 214 253C211.03 253 208.06 253 205 253C205 250.36 205 247.72 205 245C207.64 245 210.28 245 213 245C213 242.36 213 239.72 213 237C215.31 237 217.62 237 220 237C219.992 235.69 219.992 235.69 219.984 234.354C219.967 231.124 219.955 227.894 219.945 224.665C219.94 223.265 219.933 221.865 219.925 220.466C219.912 218.458 219.907 216.449 219.902 214.441C219.894 212.627 219.894 212.627 219.886 210.776C220 208 220 208 221 207C223.333 206.959 225.667 206.958 228 207C228 204.69 228 202.38 228 200C231.3 200 234.6 200 238 200C238 197.69 238 195.38 238 193C240.64 193 243.28 193 246 193C246 178.15 246 163.3 246 148C246.33 148 246.66 148 247 148C247 162.52 247 177.04 247 192C249.31 192 251.62 192 254 192C254 175.17 254 158.34 254 141C251.36 141 248.72 141 246 141C246 138.36 246 135.72 246 133Z" fill="#777777"/>
<path d="M73 208C75.64 208 78.28 208 81 208C81 217.57 81 227.14 81 237C78.36 237 75.72 237 73 237C73 227.43 73 217.86 73 208Z" fill="#080808"/>
<path d="M221 208C223.31 208 225.62 208 228 208C228 217.57 228 227.14 228 237C225.69 237 223.38 237 221 237C221 227.43 221 217.86 221 208Z" fill="#030303"/>
<path d="M97 253C99.64 253 102.28 253 105 253C105 255.31 105 257.62 105 260C110.28 260 115.56 260 121 260C121 262.64 121 265.28 121 268C120.67 268 120.34 268 120 268C120 265.69 120 263.38 120 261C115.05 261 110.1 261 105 261C105 282.78 105 304.56 105 327C102.36 327 99.72 327 97 327C97 326.67 97 326.34 97 326C99.31 326 101.62 326 104 326C104 304.22 104 282.44 104 260C101.69 260 99.38 260 97 260C97 257.69 97 255.38 97 253Z" fill="#878787"/>
<path d="M197 253C199.64 253 202.28 253 205 253C205 255.64 205 258.28 205 261C202.69 261 200.38 261 198 261C198 282.45 198 303.9 198 326C200.31 326 202.62 326 205 326C205 326.33 205 326.66 205 327C202.36 327 199.72 327 197 327C197 302.58 197 278.16 197 253Z" fill="#D5D5D5"/>
<path d="M205 245C207.64 245 210.28 245 213 245C213 247.64 213 250.28 213 253C210.36 253 207.72 253 205 253C205 250.36 205 247.72 205 245Z" fill="#1A1A1A"/>
<path d="M197 253C199.64 253 202.28 253 205 253C205 255.31 205 257.62 205 260C202.36 260 199.72 260 197 260C197 257.69 197 255.38 197 253Z" fill="#0B0B0B"/>
<path d="M97 253C99.64 253 102.28 253 105 253C105 255.31 105 257.62 105 260C102.36 260 99.72 260 97 260C97 257.69 97 255.38 97 253Z" fill="#1A1A1A"/>
<path d="M90 245C92.31 245 94.62 245 97 245C97 247.64 97 250.28 97 253C94.69 253 92.38 253 90 253C90 250.36 90 247.72 90 245Z" fill="#171717"/>
<path d="M81 238C83.64 238 86.28 238 89 238C89 240.31 89 242.62 89 245C86.36 245 83.72 245 81 245C81 242.69 81 240.38 81 238Z" fill="#0D0D0D"/>
<path d="M238 193C240.64 193 243.28 193 246 193C246 195.31 246 197.62 246 200C243.36 200 240.72 200 238 200C238 197.69 238 195.38 238 193Z" fill="#070707"/>
<path d="M214 238C216.31 238 218.62 238 221 238C221 240.31 221 242.62 221 245C218.69 245 216.38 245 214 245C214 242.69 214 240.38 214 238Z" fill="#0A0A0A"/>
<path d="M56 193C58.31 193 60.62 193 63 193C63 195.31 63 197.62 63 200C60.69 200 58.38 200 56 200C56 197.69 56 195.38 56 193Z" fill="#040404"/>
<path d="M229 201C231.64 201 234.28 201 237 201C237 202.98 237 204.96 237 207C234.36 207 231.72 207 229 207C229 205.02 229 203.04 229 201Z" fill="#040404"/>
<path d="M64 201C66.64 201 69.28 201 72 201C72 202.98 72 204.96 72 207C69.36 207 66.72 207 64 207C64 205.02 64 203.04 64 201Z" fill="#070606"/>
</g>
<defs>
<clipPath id="clip0_32_968">
<rect width="326" height="424" fill="white"/>
</clipPath>
</defs>
</svg>
