<svg width="498" height="503" viewBox="0 0 498 503" fill="none" xmlns="http://www.w3.org/2000/svg">
<g clip-path="url(#clip0_31_284)">
<path d="M205.257 68.9732C227.465 68.9732 249.673 68.9732 272.554 68.9732C272.554 72.0266 272.554 75.0799 272.554 78.2257C282.825 78.2257 293.097 78.2257 303.679 78.2257C303.679 82.1118 303.679 85.9979 303.679 90.0017C305.917 89.9756 305.917 89.9756 308.201 89.9491C312.722 89.8965 312.722 89.8965 314.615 90.8428C314.615 94.1737 314.615 97.5046 314.615 100.936C317.668 100.936 320.722 100.936 323.868 100.936C323.868 104.545 323.868 108.153 323.868 111.871C327.755 111.871 331.641 111.871 335.645 111.871C335.923 115.48 336.2 119.088 336.486 122.806C339.263 122.806 342.039 122.806 344.899 122.806C344.899 130.023 344.899 137.24 344.899 144.676C348.507 144.676 352.116 144.676 355.834 144.676C355.834 155.223 355.834 165.771 355.834 176.639C359.443 176.639 363.052 176.639 366.77 176.639C366.77 194.404 366.77 212.168 366.77 230.472C363.717 230.472 360.663 230.472 357.517 230.472C357.517 251.845 357.517 273.218 357.517 295.239C353.908 295.239 350.299 295.239 346.581 295.239C346.581 298.848 346.581 302.456 346.581 306.174C342.972 306.174 339.363 306.174 335.645 306.174C335.645 313.391 335.645 320.608 335.645 328.043C332.036 328.043 328.428 328.043 324.709 328.043C324.709 334.983 324.709 341.922 324.709 349.072C321.378 349.072 318.047 349.072 314.615 349.072C314.615 352.68 314.615 356.289 314.615 360.007C311.006 360.007 307.397 360.007 303.679 360.007C303.679 363.615 303.679 367.224 303.679 370.941C300.07 370.941 296.461 370.941 292.743 370.941C292.743 377.603 292.743 384.265 292.743 391.129C296.352 391.129 299.961 391.129 303.679 391.129C303.679 394.737 303.679 398.346 303.679 402.064C307.288 402.064 310.897 402.064 314.615 402.064C314.615 405.95 314.615 409.836 314.615 413.839C317.946 413.839 321.277 413.839 324.709 413.839C324.709 421.056 324.709 428.273 324.709 435.709C320.823 435.709 316.937 435.709 312.932 435.709C312.932 429.047 312.932 422.385 312.932 415.522C309.324 415.522 305.715 415.522 301.997 415.522C301.997 411.636 301.997 407.75 301.997 403.746C298.943 403.746 295.889 403.746 292.743 403.746C292.743 407.354 292.743 410.963 292.743 414.681C289.134 414.681 285.526 414.681 281.807 414.681C281.807 418.011 281.807 421.342 281.807 424.774C278.199 424.774 274.59 424.774 270.872 424.774C270.872 421.166 270.872 417.557 270.872 413.839C274.203 413.839 277.534 413.839 280.966 413.839C280.966 403.292 280.966 392.744 280.966 381.876C277.635 381.876 274.304 381.876 270.872 381.876C270.872 385.485 270.872 389.093 270.872 392.811C249.496 392.811 228.121 392.811 206.098 392.811C206.098 403.359 206.098 413.907 206.098 424.774C227.196 424.774 248.293 424.774 270.03 424.774C270.03 428.383 270.03 431.991 270.03 435.709C248.933 435.709 227.835 435.709 206.098 435.709C204.478 432.469 205.216 428.307 205.257 424.774C201.648 424.774 198.039 424.774 194.321 424.774C194.321 417.835 194.321 410.895 194.321 403.746C191.267 403.746 188.214 403.746 185.068 403.746C185.068 407.077 185.068 410.408 185.068 413.839C181.459 413.839 177.85 413.839 174.132 413.839C174.132 410.231 174.132 406.622 174.132 402.905C177.741 402.905 181.349 402.905 185.068 402.905C185.068 399.574 185.068 396.243 185.068 392.811C188.676 392.811 192.285 392.811 196.003 392.811C196.003 389.203 196.003 385.594 196.003 381.876C192.395 381.876 188.786 381.876 185.068 381.876C185.068 378.268 185.068 374.659 185.068 370.941C181.459 370.941 177.85 370.941 174.132 370.941C174.132 367.333 174.132 363.725 174.132 360.007C169.968 360.007 165.804 360.007 161.514 360.007C161.514 356.953 161.514 353.9 161.514 350.754C157.905 350.754 154.296 350.754 150.578 350.754C150.578 339.651 150.578 328.548 150.578 317.109C147.246 317.109 143.915 317.109 140.483 317.109C140.483 313.5 140.483 309.892 140.483 306.174C136.874 306.174 133.265 306.174 129.547 306.174C129.547 302.565 129.547 298.957 129.547 295.239C126.494 295.239 123.44 295.239 120.294 295.239C120.294 281.083 120.294 266.926 120.294 252.341C123.903 252.341 127.512 252.341 131.23 252.341C131.23 248.177 131.23 244.014 131.23 239.724C128.176 239.724 125.122 239.724 121.976 239.724C121.976 236.116 121.976 232.507 121.976 228.789C118.368 228.789 114.759 228.789 111.041 228.789C111.041 211.58 111.041 194.37 111.041 176.639C114.094 176.639 117.148 176.639 120.294 176.639C120.294 166.091 120.294 155.543 120.294 144.676C123.348 144.676 126.401 144.676 129.547 144.676C129.547 155.223 129.547 165.771 129.547 176.639C133.711 176.639 137.875 176.639 142.166 176.639C142.166 166.091 142.166 155.543 142.166 144.676C145.219 144.676 148.273 144.676 151.419 144.676C151.419 151.615 151.419 158.554 151.419 165.704C155.305 165.704 159.192 165.704 163.196 165.704C163.196 162.096 163.196 158.487 163.196 154.769C166.25 154.769 169.303 154.769 172.449 154.769C172.449 151.438 172.449 148.107 172.449 144.676C173.005 144.676 173.56 144.676 174.132 144.676C174.132 144.12 174.132 143.565 174.132 142.993C177.741 142.993 181.349 142.993 185.068 142.993C185.068 136.331 185.068 129.67 185.068 122.806C181.459 122.806 177.85 122.806 174.132 122.806C174.132 126.414 174.132 130.023 174.132 133.741C170.245 133.741 166.359 133.741 162.355 133.741C162.355 136.794 162.355 139.847 162.355 142.993C159.301 142.993 156.247 142.993 153.101 142.993C153.101 139.94 153.101 136.887 153.101 133.741C148.937 133.741 144.773 133.741 140.483 133.741C140.483 136.794 140.483 139.847 140.483 142.993C137.429 142.993 134.376 142.993 131.23 142.993C131.23 136.331 131.23 129.67 131.23 122.806C134.839 122.806 138.447 122.806 142.166 122.806C142.166 119.198 142.166 115.589 142.166 111.871C145.497 111.871 148.828 111.871 152.26 111.871C152.26 108.263 152.26 104.654 152.26 100.936C155.869 100.936 159.478 100.936 163.196 100.936C163.196 97.6055 163.196 94.2746 163.196 90.8428C166.118 90.2585 168.17 89.9006 171.03 89.9491C172.565 89.9751 172.565 89.9751 174.132 90.0017C174.132 86.3932 174.132 82.7847 174.132 79.0669C184.403 79.0669 194.674 79.0669 205.257 79.0669C205.257 75.736 205.257 72.4051 205.257 68.9732Z" fill="#F9F9F9"/>
<path d="M205.257 68.9732C227.465 68.9732 249.673 68.9732 272.554 68.9732C272.554 72.0266 272.554 75.0799 272.554 78.2257C282.825 78.2257 293.097 78.2257 303.679 78.2257C303.679 82.1118 303.679 85.9979 303.679 90.0017C305.917 89.9756 305.917 89.9756 308.201 89.9491C312.722 89.8965 312.722 89.8965 314.615 90.8428C314.615 94.1737 314.615 97.5046 314.615 100.936C317.668 100.936 320.722 100.936 323.868 100.936C323.868 104.545 323.868 108.153 323.868 111.871C327.755 111.871 331.641 111.871 335.645 111.871C335.923 115.48 336.2 119.088 336.486 122.806C339.263 122.806 342.039 122.806 344.899 122.806C344.899 130.023 344.899 137.24 344.899 144.676C348.507 144.676 352.116 144.676 355.834 144.676C355.834 155.223 355.834 165.771 355.834 176.639C359.443 176.639 363.052 176.639 366.77 176.639C366.77 194.404 366.77 212.168 366.77 230.472C363.717 230.472 360.663 230.472 357.517 230.472C357.517 251.845 357.517 273.218 357.517 295.239C353.908 295.239 350.299 295.239 346.581 295.239C346.581 298.848 346.581 302.456 346.581 306.174C342.972 306.174 339.363 306.174 335.645 306.174C335.645 313.391 335.645 320.608 335.645 328.043C332.036 328.043 328.428 328.043 324.709 328.043C324.709 334.983 324.709 341.922 324.709 349.072C321.378 349.072 318.047 349.072 314.615 349.072C314.615 352.68 314.615 356.289 314.615 360.007C311.006 360.007 307.397 360.007 303.679 360.007C303.679 363.615 303.679 367.224 303.679 370.941C300.07 370.941 296.461 370.941 292.743 370.941C292.743 377.603 292.743 384.265 292.743 391.129C296.352 391.129 299.961 391.129 303.679 391.129C303.679 394.737 303.679 398.346 303.679 402.064C307.288 402.064 310.897 402.064 314.615 402.064C314.615 405.95 314.615 409.836 314.615 413.839C317.946 413.839 321.277 413.839 324.709 413.839C324.709 421.056 324.709 428.273 324.709 435.709C320.823 435.709 316.937 435.709 312.932 435.709C312.932 429.047 312.932 422.385 312.932 415.522C309.324 415.522 305.715 415.522 301.997 415.522C301.997 411.636 301.997 407.75 301.997 403.746C298.943 403.746 295.889 403.746 292.743 403.746C292.743 407.354 292.743 410.963 292.743 414.681C289.134 414.681 285.526 414.681 281.807 414.681C281.807 418.011 281.807 421.342 281.807 424.774C278.199 424.774 274.59 424.774 270.872 424.774C270.872 421.166 270.872 417.557 270.872 413.839C274.203 413.839 277.534 413.839 280.966 413.839C280.966 403.292 280.966 392.744 280.966 381.876C277.635 381.876 274.304 381.876 270.872 381.876C270.872 385.485 270.872 389.093 270.872 392.811C249.496 392.811 228.121 392.811 206.098 392.811C206.098 403.359 206.098 413.907 206.098 424.774C227.196 424.774 248.293 424.774 270.03 424.774C270.03 428.383 270.03 431.991 270.03 435.709C248.933 435.709 227.835 435.709 206.098 435.709C204.478 432.469 205.216 428.307 205.257 424.774C201.648 424.774 198.039 424.774 194.321 424.774C194.321 417.835 194.321 410.895 194.321 403.746C191.267 403.746 188.214 403.746 185.068 403.746C185.068 407.077 185.068 410.408 185.068 413.839C181.459 413.839 177.85 413.839 174.132 413.839C174.132 410.231 174.132 406.622 174.132 402.905C177.741 402.905 181.349 402.905 185.068 402.905C185.068 399.574 185.068 396.243 185.068 392.811C188.676 392.811 192.285 392.811 196.003 392.811C196.003 389.203 196.003 385.594 196.003 381.876C192.395 381.876 188.786 381.876 185.068 381.876C185.068 378.268 185.068 374.659 185.068 370.941C191.73 370.941 198.392 370.941 205.257 370.941C205.257 374.55 205.257 378.158 205.257 381.876C226.632 381.876 248.007 381.876 270.03 381.876C270.03 378.268 270.03 374.659 270.03 370.941C273.639 370.941 277.248 370.941 280.966 370.941C280.94 368.261 280.94 368.261 280.914 365.527C280.896 363.687 280.905 361.846 280.966 360.007C281.807 359.166 281.807 359.166 283.756 359.07C284.598 359.074 285.439 359.079 286.306 359.083C287.214 359.086 288.122 359.089 289.058 359.092C290.014 359.099 290.97 359.106 291.955 359.113C293.393 359.119 293.393 359.119 294.861 359.124C297.24 359.134 299.618 359.15 301.997 359.166C301.997 355.557 301.997 351.949 301.997 348.231C305.605 348.231 309.214 348.231 312.932 348.231C312.932 341.569 312.932 334.907 312.932 328.043C316.541 327.766 320.15 327.488 323.868 327.202C323.849 325.704 323.829 324.205 323.809 322.662C323.793 320.705 323.778 318.749 323.763 316.793C323.749 315.804 323.735 314.816 323.72 313.797C323.712 312.382 323.712 312.382 323.704 310.938C323.691 309.63 323.691 309.63 323.677 308.295C323.868 306.174 323.868 306.174 325.551 304.492C327.739 304.327 327.739 304.327 330.283 304.386C331.126 304.402 331.97 304.417 332.839 304.432C333.812 304.462 333.812 304.462 334.804 304.492C334.804 301.993 334.804 299.495 334.804 296.921C331.195 296.921 327.586 296.921 323.868 296.921C323.868 271.384 323.868 245.848 323.868 219.537C320.815 219.537 317.761 219.537 314.615 219.537C314.615 223.145 314.615 226.754 314.615 230.472C296.848 230.472 279.082 230.472 260.777 230.472C260.777 226.863 260.777 223.255 260.777 219.537C277.988 219.537 295.2 219.537 312.932 219.537C312.932 209.544 312.932 199.551 312.932 189.256C310.434 189.256 307.936 189.256 305.361 189.256C305.37 189.803 305.379 190.351 305.388 190.915C305.423 193.393 305.445 195.872 305.467 198.351C305.481 199.212 305.495 200.074 305.509 200.961C305.515 201.788 305.52 202.615 305.526 203.466C305.535 204.229 305.543 204.991 305.552 205.776C305.361 207.761 305.361 207.761 303.679 210.284C301.48 210.571 301.48 210.571 298.73 210.531C297.749 210.523 296.768 210.514 295.757 210.506C294.727 210.485 293.698 210.464 292.638 210.442C291.603 210.431 290.567 210.419 289.5 210.407C286.936 210.378 284.371 210.332 281.807 210.284C281.807 206.398 281.807 202.512 281.807 198.508C285.416 198.508 289.025 198.508 292.743 198.508C292.743 194.9 292.743 191.291 292.743 187.574C288.579 187.574 284.415 187.574 280.125 187.574C280.125 190.627 280.125 193.68 280.125 196.826C277.349 196.826 274.573 196.826 271.713 196.826C271.713 190.164 271.713 183.502 271.713 176.639C268.104 176.639 264.495 176.639 260.777 176.639C260.777 169.699 260.777 162.76 260.777 155.61C263.831 155.61 266.884 155.61 270.03 155.61C270.872 156.451 270.872 156.451 270.954 158.558C270.926 160.94 270.899 163.322 270.872 165.704C274.48 165.704 278.089 165.704 281.807 165.704C281.807 158.765 281.807 151.825 281.807 144.676C284.861 144.676 287.915 144.676 291.061 144.676C291.061 151.615 291.061 158.554 291.061 165.704C295.225 165.704 299.389 165.704 303.679 165.704C303.679 158.765 303.679 151.825 303.679 144.676C306.733 144.676 309.786 144.676 312.932 144.676C312.932 148.006 312.932 151.337 312.932 154.769C316.541 155.047 320.15 155.324 323.868 155.61C323.868 162.55 323.868 169.489 323.868 176.639C328.032 176.639 332.196 176.639 336.486 176.639C336.486 169.422 336.486 162.205 336.486 154.769C332.6 154.769 328.714 154.769 324.709 154.769C324.432 151.161 324.154 147.552 323.868 143.834C320.815 143.557 317.761 143.279 314.615 142.993C314.615 139.94 314.615 136.887 314.615 133.741C310.451 133.741 306.287 133.741 301.997 133.741C301.997 136.794 301.997 139.847 301.997 142.993C298.943 142.993 295.889 142.993 292.743 142.993C292.743 139.94 292.743 136.887 292.743 133.741C288.857 133.741 284.97 133.741 280.966 133.741C280.966 136.794 280.966 139.847 280.966 142.993C278.19 142.993 275.414 142.993 272.554 142.993C272.554 136.331 272.554 129.67 272.554 122.806C268.112 122.806 263.671 122.806 259.095 122.806C259.095 133.076 259.095 143.347 259.095 153.928C256.596 153.928 254.098 153.928 251.524 153.928C251.524 146.711 251.524 139.494 251.524 132.059C246.804 132.059 242.085 132.059 237.223 132.059C237.223 143.162 237.223 154.265 237.223 165.704C241.387 165.704 245.551 165.704 249.841 165.704C249.841 169.312 249.841 172.921 249.841 176.639C252.895 176.639 255.948 176.639 259.095 176.639C259.095 183.301 259.095 189.962 259.095 196.826C256.041 196.826 252.987 196.826 249.841 196.826C249.841 193.773 249.841 190.719 249.841 187.574C246.232 187.574 242.624 187.574 238.905 187.574C238.905 191.182 238.905 194.791 238.905 198.508C235.297 198.508 231.688 198.508 227.97 198.508C227.97 191.291 227.97 184.074 227.97 176.639C224.083 176.639 220.197 176.639 216.193 176.639C216.193 166.091 216.193 155.543 216.193 144.676C212.861 144.676 209.53 144.676 206.098 144.676C206.102 145.915 206.107 147.155 206.111 148.432C206.127 153.019 206.136 157.606 206.144 162.192C206.148 164.18 206.154 166.168 206.161 168.155C206.172 171.007 206.176 173.859 206.18 176.711C206.184 177.604 206.189 178.497 206.193 179.417C206.193 180.242 206.193 181.067 206.193 181.917C206.195 182.645 206.197 183.374 206.199 184.124C206.098 185.891 206.098 185.891 205.257 187.574C201.648 187.574 198.039 187.574 194.321 187.574C194.321 173.417 194.321 159.261 194.321 144.676C191.267 144.676 188.214 144.676 185.068 144.676C185.068 151.615 185.068 158.554 185.068 165.704C181.459 165.704 177.85 165.704 174.132 165.704C174.132 175.974 174.132 186.245 174.132 196.826C170.245 196.826 166.359 196.826 162.355 196.826C162.355 200.435 162.355 204.043 162.355 207.761C158.468 207.761 154.582 207.761 150.578 207.761C150.603 209.399 150.629 211.037 150.655 212.725C150.741 218.268 150.824 223.811 150.907 229.354C150.957 232.699 151.007 236.045 151.06 239.39C151.346 257.728 151.479 276.058 151.419 294.398C148.365 294.398 145.312 294.398 142.166 294.398C142.166 283.573 142.166 272.747 142.166 261.594C138.002 261.594 133.837 261.594 129.547 261.594C129.547 272.697 129.547 283.8 129.547 295.239C126.494 295.239 123.44 295.239 120.294 295.239C120.294 281.083 120.294 266.926 120.294 252.341C123.903 252.341 127.512 252.341 131.23 252.341C131.23 248.177 131.23 244.014 131.23 239.724C128.176 239.724 125.122 239.724 121.976 239.724C121.976 236.116 121.976 232.507 121.976 228.789C118.368 228.789 114.759 228.789 111.041 228.789C111.041 211.58 111.041 194.37 111.041 176.639C114.094 176.639 117.148 176.639 120.294 176.639C120.294 166.091 120.294 155.543 120.294 144.676C123.348 144.676 126.401 144.676 129.547 144.676C129.547 155.223 129.547 165.771 129.547 176.639C133.711 176.639 137.875 176.639 142.166 176.639C142.166 166.091 142.166 155.543 142.166 144.676C145.219 144.676 148.273 144.676 151.419 144.676C151.419 151.615 151.419 158.554 151.419 165.704C155.305 165.704 159.192 165.704 163.196 165.704C163.196 162.096 163.196 158.487 163.196 154.769C166.25 154.769 169.303 154.769 172.449 154.769C172.449 151.438 172.449 148.107 172.449 144.676C173.005 144.676 173.56 144.676 174.132 144.676C174.132 144.12 174.132 143.565 174.132 142.993C177.741 142.993 181.349 142.993 185.068 142.993C185.068 136.331 185.068 129.67 185.068 122.806C181.459 122.806 177.85 122.806 174.132 122.806C174.132 126.414 174.132 130.023 174.132 133.741C170.245 133.741 166.359 133.741 162.355 133.741C162.355 136.794 162.355 139.847 162.355 142.993C159.301 142.993 156.247 142.993 153.101 142.993C153.101 139.94 153.101 136.887 153.101 133.741C148.937 133.741 144.773 133.741 140.483 133.741C140.483 136.794 140.483 139.847 140.483 142.993C137.429 142.993 134.376 142.993 131.23 142.993C131.23 136.331 131.23 129.67 131.23 122.806C134.839 122.806 138.447 122.806 142.166 122.806C142.166 119.198 142.166 115.589 142.166 111.871C145.497 111.871 148.828 111.871 152.26 111.871C152.26 108.263 152.26 104.654 152.26 100.936C155.869 100.936 159.478 100.936 163.196 100.936C163.196 97.6055 163.196 94.2746 163.196 90.8428C166.118 90.2585 168.17 89.9006 171.03 89.9491C172.565 89.9751 172.565 89.9751 174.132 90.0017C174.132 86.3932 174.132 82.7847 174.132 79.0669C184.403 79.0669 194.674 79.0669 205.257 79.0669C205.257 75.736 205.257 72.4051 205.257 68.9732Z" fill="#030403"/>
<path d="M162.355 196.826C166.241 196.826 170.128 196.826 174.132 196.826C174.132 197.381 174.132 197.936 174.132 198.508C171.078 198.508 168.025 198.508 164.878 198.508C164.878 202.117 164.878 205.725 164.878 209.443C161.358 211.203 157.037 210.284 153.101 210.284C153.101 238.042 153.101 265.799 153.101 294.398C156.433 294.398 159.764 294.398 163.196 294.398C164.029 294.814 164.029 294.814 164.878 295.239C164.878 312.726 164.878 330.214 164.878 348.231C167.932 348.231 170.986 348.231 174.132 348.231C174.132 352.117 174.132 356.003 174.132 360.007C169.968 360.007 165.804 360.007 161.514 360.007C161.514 356.953 161.514 353.9 161.514 350.754C157.905 350.754 154.296 350.754 150.578 350.754C150.578 339.651 150.578 328.548 150.578 317.109C147.247 317.109 143.915 317.109 140.483 317.109C140.483 313.5 140.483 309.892 140.483 306.174C136.874 306.174 133.266 306.174 129.547 306.174C129.547 291.462 129.547 276.751 129.547 261.594C133.711 261.594 137.875 261.594 142.166 261.594C142.166 272.419 142.166 283.245 142.166 294.398C145.219 294.398 148.273 294.398 151.419 294.398C151.394 293.72 151.369 293.043 151.343 292.345C150.68 274.037 150.466 255.759 150.52 237.44C150.529 234.072 150.533 230.704 150.537 227.335C150.546 220.811 150.56 214.286 150.578 207.761C154.464 207.761 158.351 207.761 162.355 207.761C162.355 204.152 162.355 200.544 162.355 196.826Z" fill="#5E5E5D"/>
<path d="M174.132 241.406C184.403 241.406 194.674 241.406 205.257 241.406C205.257 245.015 205.257 248.623 205.257 252.341C209.143 252.341 213.03 252.341 217.034 252.341C217.034 255.95 217.034 259.558 217.034 263.276C213.425 263.276 209.816 263.276 206.098 263.276C206.098 270.215 206.098 277.155 206.098 284.304C195.549 284.304 185 284.304 174.132 284.304C174.132 277.365 174.132 270.426 174.132 263.276C170.523 263.276 166.914 263.276 163.196 263.276C163.196 259.667 163.196 256.059 163.196 252.341C166.805 252.341 170.414 252.341 174.132 252.341C174.132 248.733 174.132 245.124 174.132 241.406Z" fill="#040404"/>
<path d="M260.777 122.806C264.663 122.806 268.55 122.806 272.554 122.806C272.554 129.468 272.554 136.13 272.554 142.993C275.33 142.993 278.106 142.993 280.966 142.993C280.966 139.94 280.966 136.887 280.966 133.741C284.853 133.741 288.739 133.741 292.743 133.741C292.743 136.794 292.743 139.847 292.743 142.993C295.797 142.993 298.85 142.993 301.997 142.993C301.997 139.94 301.997 136.887 301.997 133.741C306.161 133.741 310.325 133.741 314.615 133.741C314.615 136.794 314.615 139.847 314.615 142.993C316.879 142.967 316.879 142.967 319.189 142.941C320.749 142.923 322.31 142.933 323.868 142.993C324.709 143.834 324.709 143.834 324.792 146.309C324.764 149.129 324.737 151.949 324.709 154.769C328.596 154.769 332.482 154.769 336.486 154.769C336.486 161.986 336.486 169.203 336.486 176.639C332.322 176.639 328.158 176.639 323.868 176.639C323.868 169.699 323.868 162.76 323.868 155.61C320.815 155.61 317.761 155.61 314.615 155.61C313.782 155.194 313.782 155.194 312.932 154.769C312.932 151.438 312.932 148.107 312.932 144.676C309.879 144.676 306.825 144.676 303.679 144.676C303.679 151.615 303.679 158.554 303.679 165.704C299.515 165.704 295.351 165.704 291.061 165.704C291.061 158.765 291.061 151.825 291.061 144.676C288.007 144.676 284.954 144.676 281.807 144.676C281.807 151.615 281.807 158.554 281.807 165.704C278.476 165.704 275.145 165.704 271.713 165.704C271.713 161.818 271.713 157.932 271.713 153.928C268.104 153.928 264.495 153.928 260.777 153.928C260.777 143.658 260.777 133.388 260.777 122.806Z" fill="#8A898A"/>
<path d="M281.807 361.689C288.47 361.689 295.132 361.689 301.997 361.689C301.997 364.742 301.997 367.796 301.997 370.941C298.943 370.941 295.889 370.941 292.743 370.941C292.743 377.603 292.743 384.265 292.743 391.129C296.352 391.129 299.961 391.129 303.679 391.129C303.679 394.737 303.679 398.346 303.679 402.064C307.288 402.064 310.897 402.064 314.615 402.064C314.615 405.95 314.615 409.836 314.615 413.839C317.946 413.839 321.277 413.839 324.709 413.839C324.709 421.056 324.709 428.273 324.709 435.709C320.823 435.709 316.937 435.709 312.932 435.709C312.932 429.047 312.932 422.385 312.932 415.522C309.324 415.522 305.715 415.522 301.997 415.522C301.997 411.636 301.997 407.75 301.997 403.746C298.943 403.746 295.889 403.746 292.743 403.746C292.743 407.354 292.743 410.963 292.743 414.681C289.134 414.681 285.526 414.681 281.807 414.681C281.807 418.012 281.807 421.342 281.807 424.774C278.199 424.774 274.59 424.774 270.872 424.774C270.872 421.166 270.872 417.557 270.872 413.839C274.203 413.839 277.534 413.839 280.966 413.839C280.966 403.292 280.966 392.744 280.966 381.876C277.635 381.876 274.304 381.876 270.872 381.876C270.872 378.823 270.872 375.77 270.872 372.624C275.868 372.207 275.868 372.207 280.966 371.783C281.244 368.452 281.521 365.121 281.807 361.689Z" fill="#0C0C0C"/>
<path d="M271.713 241.406C281.706 241.406 291.7 241.406 301.997 241.406C301.997 245.015 301.997 248.623 301.997 252.341C306.161 252.341 310.325 252.341 314.615 252.341C314.615 255.95 314.615 259.558 314.615 263.276C310.451 263.276 306.287 263.276 301.997 263.276C301.997 270.215 301.997 277.155 301.997 284.304C292.003 284.304 282.009 284.304 271.713 284.304C271.713 277.365 271.713 270.426 271.713 263.276C275.044 263.276 278.375 263.276 281.807 263.276C281.807 259.667 281.807 256.059 281.807 252.341C278.476 252.341 275.145 252.341 271.713 252.341C271.713 248.733 271.713 245.124 271.713 241.406Z" fill="#090909"/>
<path d="M185.068 370.941C191.73 370.941 198.392 370.941 205.257 370.941C205.257 375.105 205.257 379.269 205.257 383.559C226.632 383.559 248.007 383.559 270.03 383.559C270.03 386.057 270.03 388.555 270.03 391.129C248.655 391.129 227.28 391.129 205.257 391.129C205.257 401.954 205.257 412.78 205.257 423.933C202.203 423.933 199.15 423.933 196.003 423.933C196.003 416.716 196.003 409.499 196.003 402.064C192.395 402.064 188.786 402.064 185.068 402.064C185.068 399.01 185.068 395.957 185.068 392.811C188.676 392.811 192.285 392.811 196.003 392.811C196.003 389.203 196.003 385.594 196.003 381.876C192.395 381.876 188.786 381.876 185.068 381.876C185.068 378.268 185.068 374.659 185.068 370.941Z" fill="#060506"/>
<path d="M291.061 370.941C291.616 370.941 292.171 370.941 292.743 370.941C292.743 377.603 292.743 384.265 292.743 391.129C296.352 391.129 299.961 391.129 303.679 391.129C303.679 394.737 303.679 398.346 303.679 402.064C307.288 402.064 310.897 402.064 314.615 402.064C314.615 405.95 314.615 409.836 314.615 413.839C317.946 413.839 321.277 413.839 324.709 413.839C324.709 421.056 324.709 428.273 324.709 435.709C320.823 435.709 316.937 435.709 312.932 435.709C312.932 429.047 312.932 422.385 312.932 415.522C309.324 415.522 305.715 415.522 301.997 415.522C301.997 411.636 301.997 407.75 301.997 403.746C298.943 403.746 295.889 403.746 292.743 403.746C292.743 407.354 292.743 410.963 292.743 414.681C289.134 414.681 285.526 414.681 281.807 414.681C281.807 418.011 281.807 421.342 281.807 424.774C278.199 424.774 274.59 424.774 270.872 424.774C270.872 421.166 270.872 417.557 270.872 413.839C274.203 413.839 277.534 413.839 280.966 413.839C280.966 403.292 280.966 392.744 280.966 381.876C281.244 381.876 281.521 381.876 281.807 381.876C281.807 392.147 281.807 402.417 281.807 412.998C284.861 412.998 287.915 412.998 291.061 412.998C291.061 409.667 291.061 406.337 291.061 402.905C294.301 401.285 298.464 402.022 301.997 402.064C301.997 399.01 301.997 395.957 301.997 392.811C298.388 392.811 294.779 392.811 291.061 392.811C291.061 385.594 291.061 378.377 291.061 370.941Z" fill="#7D7D7E"/>
<path d="M174.132 122.806C177.741 122.806 181.349 122.806 185.068 122.806C185.068 129.468 185.068 136.13 185.068 142.993C181.459 142.993 177.85 142.993 174.132 142.993C174.132 143.548 174.132 144.104 174.132 144.676C173.577 144.676 173.021 144.676 172.449 144.676C172.449 148.006 172.449 151.337 172.449 154.769C169.396 154.769 166.342 154.769 163.196 154.769C163.196 158.378 163.196 161.986 163.196 165.704C159.587 165.704 155.978 165.704 152.26 165.704C152.26 158.765 152.26 151.825 152.26 144.676C155.869 144.676 159.478 144.676 163.196 144.676C163.196 141.067 163.196 137.459 163.196 133.741C166.805 133.741 170.414 133.741 174.132 133.741C174.132 130.132 174.132 126.524 174.132 122.806Z" fill="#F5F5F5"/>
<path d="M205.257 328.043C226.91 328.043 248.563 328.043 270.872 328.043C270.872 331.097 270.872 334.15 270.872 337.296C269.466 338.701 267.754 338.243 265.878 338.251C265.284 338.249 264.691 338.248 264.079 338.246C263.457 338.247 262.835 338.249 262.194 338.25C260.127 338.254 258.06 338.252 255.993 338.249C254.562 338.249 253.132 338.25 251.702 338.251C248.701 338.253 245.7 338.251 242.698 338.247C238.842 338.242 234.987 338.245 231.131 338.25C228.176 338.253 225.222 338.252 222.268 338.25C220.846 338.249 219.423 338.25 218.001 338.252C216.017 338.254 214.033 338.251 212.049 338.246C211.455 338.248 210.862 338.249 210.251 338.251C206.194 338.233 206.194 338.233 205.257 337.296C205.257 334.243 205.257 331.189 205.257 328.043Z" fill="#050404"/>
<path d="M153.943 296.921C156.719 296.921 159.495 296.921 162.355 296.921C162.355 313.854 162.355 330.786 162.355 348.231C159.579 348.231 156.803 348.231 153.943 348.231C152.191 346.479 152.884 342.735 152.835 340.316C152.818 339.607 152.8 338.899 152.782 338.169C152.727 335.898 152.678 333.627 152.628 331.355C152.592 329.819 152.555 328.283 152.518 326.747C152.428 322.974 152.343 319.2 152.26 315.426C148.929 315.426 145.598 315.426 142.166 315.426C142.166 312.928 142.166 310.43 142.166 307.856C145.497 307.856 148.828 307.856 152.26 307.856C152.26 307.301 152.26 306.746 152.26 306.174C152.815 306.174 153.371 306.174 153.943 306.174C153.943 303.121 153.943 300.067 153.943 296.921Z" fill="#0A090A"/>
<path d="M173.677 219.441C175.117 219.441 175.117 219.441 176.586 219.441C177.626 219.446 178.666 219.45 179.738 219.455C180.8 219.456 181.861 219.457 182.956 219.458C185.78 219.462 188.604 219.47 191.427 219.479C194.309 219.488 197.19 219.491 200.071 219.496C205.726 219.505 211.38 219.52 217.034 219.537C217.034 223.145 217.034 226.754 217.034 230.472C200.655 230.472 184.277 230.472 167.402 230.472C167.402 227.141 167.402 223.81 167.402 220.378C169.602 219.278 171.214 219.436 173.677 219.441Z" fill="#1B1B1B"/>
<path d="M238.905 133.741C242.514 133.741 246.123 133.741 249.841 133.741C249.841 141.235 249.841 148.73 249.841 156.452C252.895 156.452 255.948 156.452 259.095 156.452C259.095 163.113 259.095 169.775 259.095 176.639C256.041 176.639 252.987 176.639 249.841 176.639C249.841 173.03 249.841 169.422 249.841 165.704C246.232 165.704 242.624 165.704 238.905 165.704C238.905 155.156 238.905 144.608 238.905 133.741Z" fill="#EFF0F0"/>
<path d="M217.034 295.239C221.198 295.239 225.362 295.239 229.652 295.239C229.652 298.292 229.652 301.346 229.652 304.492C236.314 304.492 242.977 304.492 249.841 304.492C249.841 301.438 249.841 298.385 249.841 295.239C253.45 295.239 257.059 295.239 260.777 295.239C260.777 298.848 260.777 302.456 260.777 306.174C257.168 306.174 253.559 306.174 249.841 306.174C249.841 309.782 249.841 313.391 249.841 317.109C242.624 317.109 235.406 317.109 227.97 317.109C227.97 313.5 227.97 309.892 227.97 306.174C224.361 306.174 220.752 306.174 217.034 306.174C217.034 302.565 217.034 298.957 217.034 295.239Z" fill="#8B8B8C"/>
<path d="M260.777 220.378C277.988 220.378 295.2 220.378 312.932 220.378C312.932 223.709 312.932 227.04 312.932 230.472C295.721 230.472 278.51 230.472 260.777 230.472C260.777 227.141 260.777 223.81 260.777 220.378Z" fill="#141313"/>
<path d="M260.777 122.806C264.108 122.806 267.439 122.806 270.872 122.806C270.872 130.023 270.872 137.24 270.872 144.676C274.203 144.676 277.534 144.676 280.966 144.676C280.966 151.337 280.966 157.999 280.966 164.863C278.19 164.863 275.414 164.863 272.554 164.863C272.276 161.532 271.999 158.201 271.713 154.769C268.104 154.492 264.495 154.214 260.777 153.928C260.777 143.658 260.777 133.388 260.777 122.806Z" fill="#EEEFEF"/>
<path d="M270.03 239.724C281.134 239.724 292.239 239.724 303.679 239.724C303.679 243.333 303.679 246.941 303.679 250.659C307.288 250.659 310.897 250.659 314.615 250.659C314.615 251.214 314.615 251.769 314.615 252.341C310.451 252.341 306.287 252.341 301.997 252.341C301.997 248.733 301.997 245.124 301.997 241.406C292.003 241.406 282.009 241.406 271.713 241.406C271.713 245.015 271.713 248.623 271.713 252.341C275.044 252.341 278.375 252.341 281.807 252.341C281.807 255.95 281.807 259.558 281.807 263.276C278.476 263.276 275.145 263.276 271.713 263.276C271.713 270.215 271.713 277.155 271.713 284.304C281.706 284.304 291.7 284.304 301.997 284.304C301.997 277.365 301.997 270.426 301.997 263.276C302.552 263.276 303.107 263.276 303.679 263.276C303.679 270.77 303.679 278.265 303.679 285.987C299.157 286.025 294.636 286.059 290.114 286.079C288.575 286.087 287.036 286.099 285.497 286.114C283.288 286.134 281.079 286.143 278.87 286.151C277.834 286.164 277.834 286.164 276.777 286.177C275.088 286.178 273.399 286.09 271.713 285.987C270.03 284.304 270.03 284.304 269.839 282.26C269.848 281.423 269.857 280.586 269.866 279.724C269.872 278.819 269.877 277.913 269.883 276.981C269.897 276.032 269.911 275.083 269.925 274.106C269.933 273.15 269.94 272.195 269.948 271.211C269.968 268.846 269.998 266.482 270.03 264.117C266.977 264.117 263.923 264.117 260.777 264.117C260.777 259.676 260.777 255.235 260.777 250.659C263.831 250.659 266.884 250.659 270.03 250.659C270.03 247.05 270.03 243.442 270.03 239.724Z" fill="#B5B5B7"/>
<path d="M207.78 426.457C228.045 426.457 248.31 426.457 269.189 426.457C269.189 428.955 269.189 431.453 269.189 434.027C248.924 434.027 228.659 434.027 207.78 434.027C207.78 431.529 207.78 429.03 207.78 426.457Z" fill="#040404"/>
<path d="M205.257 68.9732C227.465 68.9732 249.673 68.9732 272.554 68.9732C272.554 72.0266 272.554 75.0799 272.554 78.2257C282.825 78.2257 293.097 78.2257 303.679 78.2257C303.679 82.1118 303.679 85.9979 303.679 90.0017C305.917 89.9756 305.917 89.9756 308.201 89.9491C312.722 89.8965 312.722 89.8965 314.615 90.8428C314.615 94.1737 314.615 97.5046 314.615 100.936C314.06 100.936 313.504 100.936 312.932 100.936C312.932 97.8831 312.932 94.8298 312.932 91.6839C309.324 91.6839 305.715 91.6839 301.997 91.6839C301.997 87.7979 301.997 83.9118 301.997 79.908C291.17 79.908 280.344 79.908 269.189 79.908C269.189 76.8547 269.189 73.8014 269.189 70.6555C248.924 70.6555 228.659 70.6555 207.78 70.6555C207.78 73.7088 207.78 76.7622 207.78 79.908C206.939 80.7492 206.939 80.7492 203.986 80.8446C202.674 80.8445 201.361 80.8397 200.048 80.8313C199.359 80.8301 198.669 80.8289 197.959 80.8277C195.747 80.823 193.536 80.8124 191.324 80.8017C189.828 80.7975 188.333 80.7937 186.837 80.7902C183.163 80.7809 179.488 80.7664 175.814 80.7492C175.834 81.3976 175.853 82.046 175.873 82.714C175.889 83.5576 175.904 84.4011 175.919 85.2703C175.939 86.1095 175.958 86.9487 175.978 87.8134C175.814 90.0017 175.814 90.0017 174.132 91.6839C171.036 91.9163 167.987 91.7562 164.878 91.6839C164.878 95.2924 164.878 98.9009 164.878 102.619C161.27 102.619 157.661 102.619 153.943 102.619C153.943 106.227 153.943 109.836 153.943 113.554C150.334 113.554 146.725 113.554 143.007 113.554C143.007 116.607 143.007 119.66 143.007 122.806C142.729 122.806 142.452 122.806 142.166 122.806C142.166 119.198 142.166 115.589 142.166 111.871C145.497 111.871 148.828 111.871 152.26 111.871C152.26 108.263 152.26 104.654 152.26 100.936C155.869 100.936 159.478 100.936 163.196 100.936C163.196 97.6055 163.196 94.2746 163.196 90.8428C166.118 90.2585 168.17 89.9006 171.03 89.9491C172.565 89.9751 172.565 89.9751 174.132 90.0017C174.132 86.3932 174.132 82.7847 174.132 79.0669C184.403 79.0669 194.674 79.0669 205.257 79.0669C205.257 75.736 205.257 72.4051 205.257 68.9732Z" fill="#373738"/>
<path d="M163.196 252.341C170.969 252.341 178.742 252.341 186.75 252.341C186.75 256.505 186.75 260.668 186.75 264.958C183.141 264.958 179.532 264.958 175.814 264.958C175.814 271.065 175.814 277.172 175.814 283.463C185.53 283.463 195.246 283.463 205.257 283.463C205.257 276.246 205.257 269.029 205.257 261.594C208.588 261.594 211.919 261.594 215.351 261.594C215.351 258.54 215.351 255.487 215.351 252.341C215.907 252.341 216.462 252.341 217.034 252.341C217.034 255.95 217.034 259.558 217.034 263.276C213.425 263.276 209.816 263.276 206.098 263.276C206.098 270.215 206.098 277.155 206.098 284.304C195.549 284.304 185 284.304 174.132 284.304C174.132 277.365 174.132 270.426 174.132 263.276C170.523 263.276 166.914 263.276 163.196 263.276C163.196 259.667 163.196 256.059 163.196 252.341Z" fill="#F9F9FA"/>
<path d="M163.196 295.239C163.751 295.239 164.306 295.239 164.878 295.239C164.878 312.726 164.878 330.214 164.878 348.231C167.932 348.231 170.986 348.231 174.132 348.231C174.132 352.117 174.132 356.003 174.132 360.007C169.968 360.007 165.804 360.007 161.514 360.007C161.514 356.953 161.514 353.9 161.514 350.754C157.905 350.754 154.296 350.754 150.578 350.754C150.578 339.651 150.578 328.548 150.578 317.109C151.133 317.109 151.688 317.109 152.26 317.109C152.26 327.657 152.26 338.204 152.26 349.072C155.869 349.072 159.478 349.072 163.196 349.072C163.196 331.307 163.196 313.542 163.196 295.239Z" fill="#C1C1C2"/>
<path d="M131.23 263.276C134.283 263.276 137.337 263.276 140.483 263.276C140.483 273.824 140.483 284.372 140.483 295.239C137.429 295.239 134.376 295.239 131.23 295.239C131.23 284.691 131.23 274.143 131.23 263.276Z" fill="#F3F4F4"/>
<path d="M131.23 144.676C134.283 144.676 137.337 144.676 140.483 144.676C140.483 155.223 140.483 165.771 140.483 176.639C137.429 176.639 134.376 176.639 131.23 176.639C131.23 166.091 131.23 155.543 131.23 144.676Z" fill="#F1F2F2"/>
<path d="M323.868 100.936C324.423 100.936 324.979 100.936 325.551 100.936C325.551 103.99 325.551 107.043 325.551 110.189C329.437 110.189 333.324 110.189 337.328 110.189C337.328 113.797 337.328 117.406 337.328 121.124C340.381 121.124 343.435 121.124 346.581 121.124C346.581 128.341 346.581 135.558 346.581 142.993C350.19 142.993 353.799 142.993 357.517 142.993C357.517 153.541 357.517 164.089 357.517 174.957C361.126 174.957 364.735 174.957 368.453 174.957C368.453 192.721 368.453 210.486 368.453 228.789C367.898 228.789 367.342 228.789 366.77 228.789C366.77 211.58 366.77 194.37 366.77 176.639C363.161 176.639 359.553 176.639 355.835 176.639C355.835 166.091 355.835 155.543 355.835 144.676C352.226 144.676 348.617 144.676 344.899 144.676C344.899 137.459 344.899 130.242 344.899 122.806C342.123 122.806 339.347 122.806 336.487 122.806C334.867 119.566 335.604 115.404 335.645 111.871C331.759 111.871 327.872 111.871 323.868 111.871C323.868 108.263 323.868 104.654 323.868 100.936Z" fill="#AEAEAE"/>
<path d="M355.834 228.789C359.443 228.789 363.052 228.789 366.77 228.789C366.77 229.344 366.77 229.9 366.77 230.472C363.717 230.472 360.663 230.472 357.517 230.472C357.517 251.845 357.517 273.218 357.517 295.239C353.908 295.239 350.299 295.239 346.581 295.239C346.581 298.848 346.581 302.456 346.581 306.174C342.972 306.174 339.363 306.174 335.645 306.174C335.645 302.565 335.645 298.957 335.645 295.239C338.976 295.239 342.308 295.239 345.74 295.239C345.74 284.691 345.74 274.143 345.74 263.276C346.017 263.276 346.295 263.276 346.581 263.276C346.581 273.546 346.581 283.816 346.581 294.398C349.635 294.398 352.688 294.398 355.834 294.398C355.834 272.747 355.834 251.096 355.834 228.789Z" fill="#777878"/>
<path d="M203.574 326.361C226.338 326.361 249.101 326.361 272.554 326.361C272.554 330.525 272.554 334.688 272.554 338.978C271.098 340.435 269.225 339.92 267.284 339.924C266.333 339.92 266.333 339.92 265.362 339.915C264.365 339.915 264.365 339.915 263.348 339.915C261.141 339.915 258.933 339.908 256.725 339.902C255.199 339.9 253.672 339.899 252.146 339.898C248.12 339.895 244.094 339.886 240.069 339.877C235.964 339.869 231.859 339.865 227.754 339.86C219.694 339.851 211.634 339.837 203.574 339.819C203.574 335.378 203.574 330.937 203.574 326.361ZM205.257 328.043C205.257 331.097 205.257 334.15 205.257 337.296C206.662 338.701 208.374 338.243 210.251 338.251C210.844 338.249 211.437 338.248 212.049 338.246C212.671 338.247 213.294 338.249 213.935 338.25C216.002 338.254 218.069 338.252 220.136 338.249C221.566 338.249 222.996 338.25 224.426 338.251C227.428 338.253 230.429 338.251 233.43 338.247C237.286 338.242 241.142 338.245 244.998 338.25C247.952 338.253 250.906 338.252 253.861 338.25C255.283 338.249 256.705 338.25 258.127 338.252C260.111 338.254 262.095 338.251 264.079 338.246C264.673 338.248 265.266 338.249 265.878 338.251C268.61 338.472 268.61 338.472 270.872 337.296C270.872 334.243 270.872 331.189 270.872 328.043C249.219 328.043 227.566 328.043 205.257 328.043Z" fill="#B1B1B2"/>
<path d="M227.97 348.231C231.299 348.208 234.629 348.191 237.959 348.178C239.382 348.168 239.382 348.168 240.834 348.157C241.74 348.154 242.645 348.151 243.578 348.149C244.415 348.144 245.252 348.14 246.114 348.135C248.159 348.231 248.159 348.231 249.841 349.072C249.841 352.68 249.841 356.289 249.841 360.007C242.624 360.007 235.406 360.007 227.97 360.007C227.97 356.121 227.97 352.235 227.97 348.231Z" fill="#030303"/>
<path d="M336.486 264.958C339.262 264.958 342.038 264.958 344.899 264.958C344.899 274.673 344.899 284.388 344.899 294.398C342.123 294.398 339.347 294.398 336.486 294.398C336.486 284.683 336.486 274.968 336.486 264.958Z" fill="#F7F8F8"/>
<path d="M163.196 413.839C166.805 413.839 170.414 413.839 174.132 413.839C174.132 421.056 174.132 428.273 174.132 435.709C170.523 435.709 166.914 435.709 163.196 435.709C163.196 428.492 163.196 421.275 163.196 413.839Z" fill="#1E1F20"/>
<path d="M227.97 306.174C235.187 306.174 242.405 306.174 249.841 306.174C249.841 309.782 249.841 313.391 249.841 317.109C242.624 317.109 235.406 317.109 227.97 317.109C227.97 313.5 227.97 309.892 227.97 306.174Z" fill="black"/>
<path d="M205.257 328.043C226.91 328.043 248.563 328.043 270.872 328.043C270.872 331.097 270.872 334.15 270.872 337.296C269.466 338.701 267.754 338.243 265.878 338.251C265.284 338.249 264.691 338.248 264.079 338.246C263.457 338.247 262.835 338.249 262.194 338.25C260.127 338.254 258.06 338.252 255.993 338.249C254.562 338.249 253.132 338.25 251.702 338.251C248.701 338.253 245.7 338.251 242.698 338.247C238.842 338.242 234.987 338.245 231.131 338.25C228.176 338.253 225.222 338.252 222.268 338.25C220.846 338.249 219.423 338.25 218.001 338.252C216.017 338.254 214.033 338.251 212.049 338.246C211.455 338.248 210.862 338.249 210.251 338.251C206.194 338.233 206.194 338.233 205.257 337.296C205.257 334.243 205.257 331.189 205.257 328.043ZM248.096 329.069C246.903 329.088 245.709 329.106 244.515 329.125C241.405 329.174 238.295 329.224 235.184 329.275C231.998 329.326 228.812 329.376 225.625 329.427C219.396 329.526 213.168 329.625 206.939 329.726C206.939 331.946 206.939 334.167 206.939 336.455C214.917 336.474 222.895 336.489 230.872 336.498C234.576 336.503 238.28 336.509 241.984 336.518C245.557 336.527 249.13 336.532 252.702 336.535C254.067 336.536 255.432 336.539 256.797 336.544C258.705 336.55 260.612 336.551 262.52 336.55C263.607 336.552 264.694 336.554 265.814 336.556C268.283 336.631 268.283 336.631 270.03 335.614C270.03 333.393 270.03 331.173 270.03 328.885C262.717 328.855 255.408 328.949 248.096 329.069Z" fill="#2E2D2E"/>
<path d="M270.03 239.724C281.134 239.724 292.239 239.724 303.679 239.724C303.679 243.333 303.679 246.941 303.679 250.659C307.288 250.659 310.897 250.659 314.615 250.659C314.615 251.214 314.615 251.769 314.615 252.341C310.451 252.341 306.287 252.341 301.997 252.341C301.997 248.733 301.997 245.124 301.997 241.406C291.725 241.406 281.454 241.406 270.872 241.406C270.872 248.623 270.872 255.84 270.872 263.276C267.54 263.276 264.209 263.276 260.777 263.276C260.777 259.112 260.777 254.949 260.777 250.659C263.831 250.659 266.884 250.659 270.03 250.659C270.03 247.05 270.03 243.442 270.03 239.724Z" fill="#B5B5B5"/>
<path d="M174.132 142.993C181.349 142.993 188.567 142.993 196.003 142.993C196.003 157.15 196.003 171.306 196.003 185.891C199.057 185.891 202.111 185.891 205.257 185.891C205.257 186.446 205.257 187.002 205.257 187.574C201.648 187.574 198.039 187.574 194.321 187.574C194.321 173.417 194.321 159.261 194.321 144.676C191.267 144.676 188.214 144.676 185.068 144.676C185.068 151.615 185.068 158.554 185.068 165.704C181.459 165.704 177.85 165.704 174.132 165.704C174.132 165.426 174.132 165.149 174.132 164.863C177.185 164.863 180.239 164.863 183.385 164.863C183.385 158.479 183.385 152.094 183.385 145.517C180.331 145.517 177.278 145.517 174.132 145.517C174.132 149.125 174.132 152.734 174.132 156.452C170.801 156.452 167.469 156.452 164.037 156.452C164.037 158.95 164.037 161.448 164.037 164.022C163.76 164.022 163.482 164.022 163.196 164.022C163.196 160.968 163.196 157.915 163.196 154.769C166.25 154.769 169.303 154.769 172.449 154.769C172.449 151.438 172.449 148.107 172.449 144.676C173.005 144.676 173.56 144.676 174.132 144.676C174.132 144.12 174.132 143.565 174.132 142.993Z" fill="#727272"/>
<path d="M325.551 155.61C328.604 155.61 331.658 155.61 334.804 155.61C334.804 162.55 334.804 169.489 334.804 176.639C331.473 176.639 328.142 176.639 324.709 176.639C324.687 173.292 324.67 169.945 324.657 166.598C324.65 165.642 324.643 164.686 324.636 163.701C324.633 162.793 324.63 161.885 324.627 160.95C324.623 160.108 324.618 159.267 324.614 158.4C324.709 156.452 324.709 156.452 325.551 155.61Z" fill="#F5F5F5"/>
<path d="M325.551 306.174C328.604 306.174 331.658 306.174 334.804 306.174C334.804 313.113 334.804 320.053 334.804 327.202C331.473 327.202 328.142 327.202 324.709 327.202C324.687 324.013 324.67 320.824 324.657 317.634C324.65 316.726 324.643 315.817 324.636 314.881C324.633 314.014 324.63 313.146 324.627 312.252C324.623 311.451 324.618 310.649 324.614 309.823C324.709 307.856 324.709 307.856 325.551 306.174Z" fill="#151515"/>
<path d="M292.743 144.676C295.797 144.676 298.851 144.676 301.997 144.676C301.997 151.615 301.997 158.554 301.997 165.704C298.943 165.704 295.889 165.704 292.743 165.704C292.743 158.765 292.743 151.825 292.743 144.676Z" fill="#FAFBFB"/>
<path d="M314.615 328.043C317.668 328.043 320.722 328.043 323.868 328.043C323.868 334.705 323.868 341.367 323.868 348.231C320.815 348.231 317.761 348.231 314.615 348.231C314.615 341.569 314.615 334.907 314.615 328.043Z" fill="#030202"/>
<path d="M314.615 414.681C317.668 414.681 320.722 414.681 323.868 414.681C323.868 421.065 323.868 427.449 323.868 434.027C320.815 434.027 317.761 434.027 314.615 434.027C314.615 427.643 314.615 421.258 314.615 414.681Z" fill="#040402"/>
<path d="M109.358 176.639C109.913 176.639 110.469 176.639 111.041 176.639C111.041 193.848 111.041 211.058 111.041 228.789C114.649 228.789 118.258 228.789 121.976 228.789C121.976 232.398 121.976 236.006 121.976 239.724C125.03 239.724 128.084 239.724 131.23 239.724C131.23 243.888 131.23 248.051 131.23 252.341C127.621 252.341 124.012 252.341 120.294 252.341C120.294 251.786 120.294 251.231 120.294 250.659C123.348 250.659 126.401 250.659 129.547 250.659C129.547 247.606 129.547 244.552 129.547 241.406C126.494 241.406 123.44 241.406 120.294 241.406C120.294 237.798 120.294 234.189 120.294 230.472C116.685 230.472 113.076 230.472 109.358 230.472C109.358 212.707 109.358 194.942 109.358 176.639Z" fill="#4F4F50"/>
<path d="M194.321 424.774C197.93 424.774 201.539 424.774 205.257 424.774C205.534 428.383 205.812 431.991 206.098 435.709C227.196 435.709 248.293 435.709 270.03 435.709C270.447 430.296 270.447 430.296 270.872 424.774C274.48 424.774 278.089 424.774 281.807 424.774C281.807 425.329 281.807 425.885 281.807 426.457C278.754 426.457 275.7 426.457 272.554 426.457C272.564 427.175 272.574 427.894 272.584 428.635C272.591 429.564 272.599 430.493 272.607 431.451C272.616 432.378 272.626 433.305 272.636 434.26C272.554 436.55 272.554 436.55 271.713 437.391C269.64 437.471 267.59 437.497 265.517 437.487C264.869 437.487 264.22 437.487 263.552 437.487C261.399 437.487 259.246 437.48 257.093 437.473C255.605 437.472 254.116 437.471 252.627 437.47C248.701 437.467 244.775 437.458 240.849 437.449C236.845 437.44 232.842 437.437 228.839 437.432C220.978 437.423 213.117 437.409 205.257 437.391C203.637 434.152 204.374 429.989 204.416 426.457C201.084 426.457 197.753 426.457 194.321 426.457C194.321 425.901 194.321 425.346 194.321 424.774Z" fill="#DCDCDD"/>
<path d="M260.777 178.321C263.831 178.321 266.884 178.321 270.03 178.321C270.03 184.428 270.03 190.534 270.03 196.826C266.977 196.826 263.923 196.826 260.777 196.826C260.777 190.719 260.777 184.613 260.777 178.321Z" fill="#F6F6F6"/>
<path d="M354.152 228.789C354.707 228.789 355.262 228.789 355.834 228.789C355.834 250.44 355.834 272.091 355.834 294.398C352.781 294.398 349.727 294.398 346.581 294.398C346.581 284.128 346.581 273.857 346.581 263.276C342.695 263.276 338.808 263.276 334.804 263.276C334.804 262.721 334.804 262.166 334.804 261.594C339.246 261.594 343.687 261.594 348.264 261.594C348.264 272.141 348.264 282.689 348.264 293.557C350.484 293.557 352.705 293.557 354.993 293.557C354.968 292.85 354.942 292.143 354.916 291.415C354.186 270.535 354.052 249.681 354.152 228.789Z" fill="#171819"/>
<path d="M334.804 263.276C338.413 263.276 342.022 263.276 345.74 263.276C345.74 273.824 345.74 284.372 345.74 295.239C342.409 295.239 339.077 295.239 335.645 295.239C335.645 298.848 335.645 302.456 335.645 306.174C332.036 306.174 328.428 306.174 324.71 306.174C324.987 305.619 325.265 305.064 325.551 304.492C328.604 304.492 331.658 304.492 334.804 304.492C334.804 301.993 334.804 299.495 334.804 296.921C331.195 296.921 327.586 296.921 323.868 296.921C323.868 296.366 323.868 295.811 323.868 295.239C327.477 295.239 331.086 295.239 334.804 295.239C334.804 284.691 334.804 274.143 334.804 263.276ZM336.487 264.958C336.487 274.673 336.487 284.388 336.487 294.398C339.263 294.398 342.039 294.398 344.899 294.398C344.899 284.683 344.899 274.968 344.899 264.958C342.123 264.958 339.347 264.958 336.487 264.958Z" fill="#B1B2B3"/>
<path d="M204.416 142.993C208.857 142.993 213.299 142.993 217.875 142.993C217.875 153.541 217.875 164.089 217.875 174.957C221.206 174.957 224.537 174.957 227.97 174.957C227.97 175.512 227.97 176.067 227.97 176.639C224.083 176.639 220.197 176.639 216.193 176.639C216.193 166.091 216.193 155.543 216.193 144.676C212.861 144.676 209.53 144.676 206.098 144.676C206.098 158.277 206.098 171.878 206.098 185.891C205.82 185.891 205.543 185.891 205.257 185.891C205.134 181.945 205.015 177.999 204.897 174.053C204.857 172.717 204.816 171.381 204.775 170.045C204.495 161.023 204.374 152.02 204.416 142.993Z" fill="#525253"/>
<path d="M163.196 196.826C166.805 196.826 170.414 196.826 174.132 196.826C174.132 197.381 174.132 197.936 174.132 198.508C171.078 198.508 168.025 198.508 164.878 198.508C164.878 202.117 164.878 205.725 164.878 209.443C161.358 211.203 157.037 210.284 153.101 210.284C153.101 238.042 153.101 265.799 153.101 294.398C156.433 294.398 159.764 294.398 163.196 294.398C163.196 294.676 163.196 294.953 163.196 295.239C159.587 295.239 155.978 295.239 152.26 295.239C152.26 266.649 152.26 238.059 152.26 208.602C155.869 208.602 159.478 208.602 163.196 208.602C163.196 204.716 163.196 200.83 163.196 196.826Z" fill="#B7B7B7"/>
<path d="M205.257 370.941C205.812 370.941 206.367 370.941 206.939 370.941C206.939 373.995 206.939 377.048 206.939 380.194C227.482 380.194 248.024 380.194 269.189 380.194C269.189 377.141 269.189 374.087 269.189 370.941C269.467 370.941 269.744 370.941 270.03 370.941C270.03 374.55 270.03 378.158 270.03 381.876C248.655 381.876 227.28 381.876 205.257 381.876C205.257 378.268 205.257 374.659 205.257 370.941Z" fill="#BBBBBC"/>
<path d="M325.551 219.537C325.828 219.537 326.106 219.537 326.392 219.537C326.392 243.963 326.392 268.39 326.392 293.557C328.613 293.557 330.833 293.557 333.122 293.557C333.122 283.564 333.122 273.571 333.122 263.276C333.677 263.276 334.232 263.276 334.804 263.276C334.804 273.824 334.804 284.372 334.804 295.239C331.75 295.239 328.697 295.239 325.551 295.239C325.551 270.257 325.551 245.276 325.551 219.537Z" fill="#1B1C1C"/>
<path d="M206.098 144.676C209.429 144.676 212.76 144.676 216.193 144.676C216.193 155.223 216.193 165.771 216.193 176.639C220.079 176.639 223.965 176.639 227.97 176.639C227.97 183.856 227.97 191.073 227.97 198.508C227.414 198.508 226.859 198.508 226.287 198.508C226.287 191.847 226.287 185.185 226.287 178.321C222.678 178.321 219.07 178.321 215.351 178.321C215.351 167.496 215.351 156.67 215.351 145.517C212.575 145.517 209.799 145.517 206.939 145.517C206.939 159.395 206.939 173.274 206.939 187.574C206.384 187.574 205.829 187.574 205.257 187.574C205.534 173.417 205.812 159.261 206.098 144.676Z" fill="#ADAEAF"/>
<path d="M107.676 176.639C108.231 176.639 108.786 176.639 109.358 176.639C109.358 194.404 109.358 212.168 109.358 230.472C112.967 230.472 116.576 230.472 120.294 230.472C120.294 234.08 120.294 237.689 120.294 241.406C119.739 241.406 119.184 241.406 118.611 241.406C118.611 238.353 118.611 235.3 118.611 232.154C115.28 232.154 111.949 232.154 108.517 232.154C107.352 229.825 107.575 227.945 107.58 225.339C107.58 224.261 107.58 223.184 107.58 222.073C107.585 220.893 107.589 219.712 107.594 218.531C107.595 217.327 107.596 216.122 107.597 214.918C107.6 211.746 107.609 208.573 107.618 205.401C107.627 202.165 107.63 198.929 107.635 195.693C107.644 189.341 107.658 182.99 107.676 176.639Z" fill="#D8D9D9"/>
<path d="M291.061 370.941C291.616 370.941 292.171 370.941 292.743 370.941C292.743 377.603 292.743 384.265 292.743 391.129C296.352 391.129 299.961 391.129 303.679 391.129C303.679 395.015 303.679 398.901 303.679 402.905C306.733 402.905 309.786 402.905 312.932 402.905C312.932 403.182 312.932 403.46 312.932 403.746C309.879 403.746 306.825 403.746 303.679 403.746C303.679 407.354 303.679 410.963 303.679 414.681C306.733 414.681 309.786 414.681 312.932 414.681C312.932 414.958 312.932 415.236 312.932 415.522C309.324 415.522 305.715 415.522 301.997 415.522C301.997 411.636 301.997 407.75 301.997 403.746C298.943 403.746 295.889 403.746 292.743 403.746C292.743 403.191 292.743 402.636 292.743 402.064C295.797 402.064 298.85 402.064 301.997 402.064C301.997 399.01 301.997 395.957 301.997 392.811C298.388 392.811 294.779 392.811 291.061 392.811C291.061 385.594 291.061 378.377 291.061 370.941Z" fill="#969697"/>
<path d="M335.645 306.174C339.254 306.174 342.863 306.174 346.581 306.174C346.581 306.729 346.581 307.284 346.581 307.856C343.527 307.856 340.474 307.856 337.328 307.856C337.347 309.294 337.367 310.732 337.387 312.213C337.403 314.09 337.418 315.967 337.433 317.845C337.447 318.793 337.461 319.742 337.476 320.72C337.481 321.625 337.486 322.53 337.492 323.463C337.501 324.3 337.51 325.137 337.519 325.999C337.328 328.043 337.328 328.043 335.645 329.726C333.457 329.89 333.457 329.89 330.913 329.831C329.648 329.808 329.648 329.808 328.357 329.785C327.708 329.765 327.06 329.746 326.392 329.726C326.396 330.303 326.401 330.88 326.405 331.475C326.423 334.081 326.434 336.687 326.444 339.294C326.452 340.202 326.459 341.111 326.466 342.047C326.469 342.915 326.471 343.782 326.474 344.676C326.478 345.477 326.483 346.279 326.487 347.105C326.392 349.072 326.392 349.072 325.551 350.754C321.942 350.754 318.333 350.754 314.615 350.754C314.615 350.199 314.615 349.644 314.615 349.072C317.946 349.072 321.277 349.072 324.709 349.072C324.709 342.133 324.709 335.193 324.709 328.043C328.318 328.043 331.927 328.043 335.645 328.043C335.645 320.827 335.645 313.61 335.645 306.174Z" fill="#D3D2D4"/>
<path d="M174.132 360.007C177.741 360.007 181.349 360.007 185.068 360.007C185.068 363.615 185.068 367.224 185.068 370.941C181.459 370.941 177.85 370.941 174.132 370.941C174.132 367.333 174.132 363.725 174.132 360.007Z" fill="#101010"/>
<path d="M249.841 295.239C253.45 295.239 257.059 295.239 260.777 295.239C260.777 298.848 260.777 302.456 260.777 306.174C257.168 306.174 253.559 306.174 249.841 306.174C249.841 302.565 249.841 298.957 249.841 295.239Z" fill="#48484A"/>
<path d="M163.196 252.341C166.805 252.341 170.414 252.341 174.132 252.341C174.132 255.95 174.132 259.558 174.132 263.276C170.523 263.276 166.914 263.276 163.196 263.276C163.196 259.667 163.196 256.059 163.196 252.341Z" fill="#050505"/>
<path d="M237.223 132.059C241.942 132.059 246.661 132.059 251.524 132.059C251.524 139.275 251.524 146.492 251.524 153.928C254.022 153.928 256.52 153.928 259.095 153.928C259.095 154.206 259.095 154.483 259.095 154.769C256.041 154.769 252.987 154.769 249.841 154.769C249.841 147.83 249.841 140.89 249.841 133.741C246.232 133.741 242.624 133.741 238.905 133.741C238.905 144.289 238.905 154.837 238.905 165.704C238.35 165.704 237.795 165.704 237.223 165.704C237.223 154.601 237.223 143.498 237.223 132.059Z" fill="#454445"/>
<path d="M227.97 348.231C231.299 348.208 234.629 348.191 237.959 348.178C239.382 348.168 239.382 348.168 240.834 348.157C241.74 348.154 242.645 348.151 243.578 348.149C244.415 348.144 245.252 348.14 246.114 348.135C248.159 348.231 248.159 348.231 249.841 349.072C249.841 352.68 249.841 356.289 249.841 360.007C242.624 360.007 235.406 360.007 227.97 360.007C227.97 356.121 227.97 352.235 227.97 348.231ZM229.652 350.754C229.652 353.252 229.652 355.751 229.652 358.324C235.759 358.324 241.866 358.324 248.159 358.324C248.159 355.826 248.159 353.328 248.159 350.754C242.052 350.754 235.944 350.754 229.652 350.754Z" fill="#4A494A"/>
<path d="M323.868 100.936C324.423 100.936 324.979 100.936 325.551 100.936C325.551 103.99 325.551 107.043 325.551 110.189C329.437 110.189 333.324 110.189 337.328 110.189C337.328 113.797 337.328 117.406 337.328 121.124C340.381 121.124 343.435 121.124 346.581 121.124C346.581 128.618 346.581 136.113 346.581 143.834C349.635 143.834 352.688 143.834 355.835 143.834C355.835 144.112 355.835 144.39 355.835 144.676C352.226 144.676 348.617 144.676 344.899 144.676C344.899 137.459 344.899 130.242 344.899 122.806C342.123 122.806 339.347 122.806 336.487 122.806C334.867 119.566 335.604 115.404 335.645 111.871C331.759 111.871 327.872 111.871 323.868 111.871C323.868 108.263 323.868 104.654 323.868 100.936Z" fill="#9C9C9C"/>
<path d="M301.997 133.741C302.552 133.741 303.107 133.741 303.679 133.741C303.679 136.794 303.679 139.847 303.679 142.993C306.733 142.993 309.786 142.993 312.932 142.993C312.932 143.271 312.932 143.548 312.932 143.834C309.879 143.834 306.825 143.834 303.679 143.834C303.679 151.051 303.679 158.268 303.679 165.704C303.124 165.704 302.569 165.704 301.997 165.704C301.997 158.765 301.997 151.825 301.997 144.676C298.943 144.676 295.889 144.676 292.743 144.676C292.743 151.615 292.743 158.554 292.743 165.704C292.188 165.704 291.633 165.704 291.061 165.704C291.061 158.487 291.061 151.27 291.061 143.834C294.301 142.215 298.464 142.952 301.997 142.993C301.997 139.94 301.997 136.887 301.997 133.741Z" fill="#7D7D7D"/>
<path d="M271.713 68.9732C271.99 68.9732 272.268 68.9732 272.554 68.9732C272.554 72.0266 272.554 75.0799 272.554 78.2257C282.825 78.2257 293.097 78.2257 303.679 78.2257C303.679 82.1118 303.679 85.9979 303.679 90.0017C305.917 89.9756 305.917 89.9756 308.201 89.9491C312.722 89.8965 312.722 89.8965 314.615 90.8428C314.615 94.1737 314.615 97.5046 314.615 100.936C314.06 100.936 313.504 100.936 312.932 100.936C312.932 97.8831 312.932 94.8298 312.932 91.6839C309.324 91.6839 305.715 91.6839 301.997 91.6839C301.997 87.7979 301.997 83.9118 301.997 79.908C292.003 79.908 282.009 79.908 271.713 79.908C271.713 76.2995 271.713 72.6911 271.713 68.9732Z" fill="#7C7B7C"/>
<path d="M152.26 295.239C155.869 295.239 159.478 295.239 163.196 295.239C163.196 313.004 163.196 330.769 163.196 349.072C159.587 349.072 155.978 349.072 152.26 349.072C152.26 338.524 152.26 327.976 152.26 317.109C152.538 317.109 152.815 317.109 153.101 317.109C153.379 327.101 153.657 337.094 153.943 347.39C156.719 347.667 159.495 347.945 162.355 348.231C162.355 331.299 162.355 314.367 162.355 296.921C159.579 296.921 156.803 296.921 153.943 296.921C153.943 299.975 153.943 303.028 153.943 306.174C153.387 306.174 152.832 306.174 152.26 306.174C152.26 302.565 152.26 298.957 152.26 295.239Z" fill="#504F50"/>
<path d="M142.166 295.239C145.497 295.239 148.828 295.239 152.26 295.239C152.26 298.848 152.26 302.456 152.26 306.174C148.929 306.174 145.598 306.174 142.166 306.174C142.166 302.565 142.166 298.957 142.166 295.239Z" fill="#E3E4E5"/>
<path d="M260.777 252.341C264.108 252.341 267.439 252.341 270.872 252.341C270.872 255.95 270.872 259.558 270.872 263.276C267.54 263.276 264.209 263.276 260.777 263.276C260.777 259.667 260.777 256.059 260.777 252.341Z" fill="#373736"/>
<path d="M355.834 176.639C359.443 176.639 363.052 176.639 366.77 176.639C366.77 193.848 366.77 211.058 366.77 228.789C363.439 228.789 360.108 228.789 356.676 228.789C356.676 228.512 356.676 228.234 356.676 227.948C359.452 227.948 362.228 227.948 365.088 227.948C365.088 211.571 365.088 195.194 365.088 178.321C362.034 178.321 358.981 178.321 355.834 178.321C355.834 177.766 355.834 177.211 355.834 176.639Z" fill="#171717"/>
<path d="M163.196 349.913C172.239 349.808 172.239 349.808 174.132 350.754C174.132 353.807 174.132 356.861 174.132 360.007C170.523 360.007 166.914 360.007 163.196 360.007C163.196 356.676 163.196 353.345 163.196 349.913Z" fill="#020101"/>
<path d="M355.834 228.789C359.443 228.789 363.052 228.789 366.77 228.789C366.77 229.344 366.77 229.9 366.77 230.472C363.717 230.472 360.663 230.472 357.517 230.472C357.517 250.179 357.517 269.887 357.517 290.192C357.239 290.192 356.962 290.192 356.676 290.192C355.964 276.164 355.726 262.18 355.782 248.135C355.786 246.242 355.79 244.348 355.793 242.454C355.802 237.899 355.817 233.344 355.834 228.789Z" fill="#98999A"/>
<path d="M142.166 133.741C145.497 133.741 148.828 133.741 152.26 133.741C152.26 137.072 152.26 140.403 152.26 143.834C148.929 143.834 145.598 143.834 142.166 143.834C142.166 140.504 142.166 137.173 142.166 133.741Z" fill="#E0E1E1"/>
<path d="M260.777 198.508C264.108 198.508 267.439 198.508 270.872 198.508C270.954 205.655 270.954 205.655 270.872 207.761C270.03 208.602 270.03 208.602 267.924 208.684C265.542 208.657 263.159 208.629 260.777 208.602C260.777 205.271 260.777 201.94 260.777 198.508Z" fill="#1A1A1A"/>
<path d="M174.132 241.406C184.403 241.406 194.674 241.406 205.257 241.406C205.257 245.015 205.257 248.623 205.257 252.341C204.702 252.341 204.146 252.341 203.574 252.341C203.574 249.288 203.574 246.234 203.574 243.089C194.413 243.089 185.253 243.089 175.814 243.089C175.814 245.587 175.814 248.085 175.814 250.659C178.868 250.659 181.921 250.659 185.068 250.659C185.068 251.214 185.068 251.769 185.068 252.341C181.459 252.341 177.85 252.341 174.132 252.341C174.132 248.733 174.132 245.124 174.132 241.406Z" fill="#222121"/>
<path d="M303.679 403.746C306.733 403.746 309.786 403.746 312.932 403.746C312.932 407.077 312.932 410.408 312.932 413.839C309.879 413.839 306.825 413.839 303.679 413.839C303.679 410.509 303.679 407.178 303.679 403.746Z" fill="#111110"/>
<path d="M314.615 144.676C317.668 144.676 320.722 144.676 323.868 144.676C323.868 148.006 323.868 151.337 323.868 154.769C320.815 154.769 317.761 154.769 314.615 154.769C314.615 151.438 314.615 148.107 314.615 144.676Z" fill="#F6F5F5"/>
<path d="M172.449 144.676C176.613 144.676 180.777 144.676 185.068 144.676C185.068 151.615 185.068 158.554 185.068 165.704C181.459 165.704 177.85 165.704 174.132 165.704C174.132 165.426 174.132 165.149 174.132 164.863C177.185 164.863 180.239 164.863 183.385 164.863C183.385 158.479 183.385 152.094 183.385 145.517C180.331 145.517 177.278 145.517 174.132 145.517C174.132 149.125 174.132 152.734 174.132 156.451C170.801 156.451 167.469 156.451 164.037 156.451C164.037 158.95 164.037 161.448 164.037 164.022C163.76 164.022 163.482 164.022 163.196 164.022C163.196 160.968 163.196 157.915 163.196 154.769C166.25 154.769 169.303 154.769 172.449 154.769C172.449 151.438 172.449 148.107 172.449 144.676Z" fill="#30302F"/>
<path d="M120.294 252.341C122.237 252.341 124.18 252.341 126.182 252.341C125.905 252.896 125.627 253.451 125.341 254.023C124.231 254.023 123.12 254.023 121.976 254.023C121.976 267.069 121.976 280.115 121.976 293.557C124.475 293.557 126.973 293.557 129.547 293.557C129.547 294.112 129.547 294.667 129.547 295.239C126.494 295.239 123.44 295.239 120.294 295.239C120.294 281.083 120.294 266.926 120.294 252.341Z" fill="#232221"/>
<path d="M120.294 144.676C123.348 144.676 126.401 144.676 129.547 144.676C129.547 154.668 129.547 164.661 129.547 174.957C129.27 174.957 128.992 174.957 128.706 174.957C128.706 165.519 128.706 156.081 128.706 146.358C126.485 146.358 124.264 146.358 121.976 146.358C121.976 156.351 121.976 166.343 121.976 176.639C121.421 176.639 120.866 176.639 120.294 176.639C120.294 166.091 120.294 155.543 120.294 144.676Z" fill="#1E1F1E"/>
<path d="M301.997 263.276C302.552 263.276 303.107 263.276 303.679 263.276C303.679 270.77 303.679 278.265 303.679 285.987C293.13 285.987 282.581 285.987 271.713 285.987C271.713 285.431 271.713 284.876 271.713 284.304C281.706 284.304 291.7 284.304 301.997 284.304C301.997 277.365 301.997 270.426 301.997 263.276Z" fill="#919292"/>
<path d="M314.615 328.043C317.668 328.043 320.722 328.043 323.868 328.043C323.868 334.705 323.868 341.367 323.868 348.231C320.815 348.231 317.761 348.231 314.615 348.231C314.615 341.569 314.615 334.907 314.615 328.043ZM316.297 329.726C316.297 335.277 316.297 340.829 316.297 346.549C318.241 346.549 320.184 346.549 322.186 346.549C322.186 340.997 322.186 335.445 322.186 329.726C320.243 329.726 318.299 329.726 316.297 329.726Z" fill="#1B1A1A"/>
<path d="M281.807 187.574C284.861 187.574 287.915 187.574 291.061 187.574C291.061 190.627 291.061 193.68 291.061 196.826C288.007 196.826 284.954 196.826 281.807 196.826C281.807 193.773 281.807 190.719 281.807 187.574Z" fill="#FBFBFB"/>
<path d="M303.679 133.741C306.733 133.741 309.786 133.741 312.932 133.741C312.932 136.794 312.932 139.847 312.932 142.993C309.879 142.993 306.825 142.993 303.679 142.993C303.679 139.94 303.679 136.887 303.679 133.741Z" fill="#FBFBFB"/>
<path d="M334.804 261.594C339.246 261.594 343.687 261.594 348.264 261.594C348.264 272.142 348.264 282.689 348.264 293.557C350.762 293.557 353.26 293.557 355.834 293.557C355.834 293.834 355.834 294.112 355.834 294.398C352.781 294.398 349.727 294.398 346.581 294.398C346.581 284.128 346.581 273.857 346.581 263.276C342.695 263.276 338.808 263.276 334.804 263.276C334.804 262.721 334.804 262.166 334.804 261.594Z" fill="#252525"/>
<path d="M314.615 412.157C318.501 412.157 322.388 412.157 326.392 412.157C326.411 415.481 326.428 418.804 326.438 422.127C326.444 423.815 326.455 425.502 326.466 427.189C326.47 428.775 326.47 428.775 326.474 430.393C326.481 431.86 326.481 431.86 326.487 433.356C326.392 435.709 326.392 435.709 325.551 437.391C321.387 437.391 317.223 437.391 312.932 437.391C312.932 436.836 312.932 436.281 312.932 435.709C316.819 435.709 320.705 435.709 324.709 435.709C324.709 428.492 324.709 421.275 324.709 413.839C321.378 413.839 318.047 413.839 314.615 413.839C314.615 413.284 314.615 412.729 314.615 412.157Z" fill="#D5D6D6"/>
<path d="M271.713 414.681C274.489 414.681 277.265 414.681 280.125 414.681C280.125 417.734 280.125 420.787 280.125 423.933C277.349 423.933 274.573 423.933 271.713 423.933C271.713 420.88 271.713 417.826 271.713 414.681Z" fill="#0F0F10"/>
<path d="M174.132 404.587C177.185 404.587 180.239 404.587 183.385 404.587C183.385 407.363 183.385 410.138 183.385 412.998C180.332 412.998 177.278 412.998 174.132 412.998C174.132 410.223 174.132 407.447 174.132 404.587Z" fill="#0C0B0C"/>
<path d="M185.068 370.941C191.73 370.941 198.392 370.941 205.257 370.941C205.257 374.55 205.257 378.158 205.257 381.876C204.702 381.876 204.146 381.876 203.574 381.876C203.574 378.823 203.574 375.77 203.574 372.624C198.022 372.624 192.47 372.624 186.75 372.624C186.75 375.122 186.75 377.62 186.75 380.194C189.248 380.194 191.747 380.194 194.321 380.194C194.321 380.749 194.321 381.304 194.321 381.876C191.267 381.876 188.214 381.876 185.068 381.876C185.068 378.268 185.068 374.659 185.068 370.941Z" fill="#1C1C1B"/>
<path d="M303.679 350.754C306.733 350.754 309.786 350.754 312.932 350.754C312.932 353.53 312.932 356.306 312.932 359.166C309.879 359.166 306.825 359.166 303.679 359.166C303.679 356.39 303.679 353.614 303.679 350.754Z" fill="#070606"/>
<path d="M336.486 296.921C339.262 296.921 342.038 296.921 344.899 296.921C344.899 299.975 344.899 303.028 344.899 306.174C342.123 306.174 339.347 306.174 336.486 306.174C336.486 303.121 336.486 300.067 336.486 296.921Z" fill="#151414"/>
<path d="M284.571 134.5C286.734 134.527 288.898 134.555 291.061 134.582C291.061 137.358 291.061 140.133 291.061 142.993C288.007 142.993 284.954 142.993 281.807 142.993C281.725 137.161 281.725 137.161 281.807 135.423C282.649 134.582 282.649 134.582 284.571 134.5Z" fill="#F3F3F3"/>
<path d="M314.615 219.537C317.668 219.537 320.722 219.537 323.868 219.537C323.868 232.028 323.868 244.519 323.868 257.388C323.591 257.388 323.313 257.388 323.027 257.388C322.19 253.221 322.076 249.267 322.104 245.04C322.105 244.357 322.106 243.673 322.107 242.969C322.112 240.801 322.123 238.633 322.133 236.465C322.137 234.988 322.141 233.512 322.145 232.036C322.154 228.43 322.168 224.825 322.186 221.219C319.687 221.219 317.189 221.219 314.615 221.219C314.615 220.664 314.615 220.109 314.615 219.537Z" fill="#D3D3D3"/>
<path d="M314.615 414.681C317.668 414.681 320.722 414.681 323.868 414.681C323.868 421.065 323.868 427.449 323.868 434.027C323.313 434.027 322.758 434.027 322.186 434.027C322.186 427.92 322.186 421.813 322.186 415.522C320.52 415.799 318.855 416.077 317.139 416.363C316.861 422.192 316.583 428.021 316.297 434.027C315.742 434.027 315.187 434.027 314.615 434.027C314.615 427.643 314.615 421.258 314.615 414.681Z" fill="#161615"/>
<path d="M174.132 165.704C177.741 165.704 181.349 165.704 185.068 165.704C185.068 166.259 185.068 166.814 185.068 167.386C182.014 167.386 178.96 167.386 175.814 167.386C175.814 177.657 175.814 187.927 175.814 198.508C175.259 198.508 174.704 198.508 174.132 198.508C174.132 187.683 174.132 176.857 174.132 165.704Z" fill="#D6D6D7"/>
<path d="M218.716 296.921C221.77 296.921 224.823 296.921 227.97 296.921C227.97 299.42 227.97 301.918 227.97 304.492C224.916 304.492 221.862 304.492 218.716 304.492C218.716 301.993 218.716 299.495 218.716 296.921Z" fill="#080909"/>
<path d="M131.23 296.921C134.283 296.921 137.337 296.921 140.483 296.921C140.483 299.42 140.483 301.918 140.483 304.492C137.429 304.492 134.376 304.492 131.23 304.492C131.23 301.993 131.23 299.495 131.23 296.921Z" fill="#020201"/>
<path d="M303.679 349.072C307.288 349.072 310.897 349.072 314.615 349.072C314.615 352.68 314.615 356.289 314.615 360.007C311.006 360.007 307.397 360.007 303.679 360.007C303.679 363.615 303.679 367.224 303.679 370.941C303.124 370.941 302.569 370.941 301.997 370.941C301.739 352.951 301.739 352.951 303.679 349.072ZM303.679 350.754C303.679 353.53 303.679 356.306 303.679 359.166C306.733 359.166 309.786 359.166 312.932 359.166C312.932 356.39 312.932 353.614 312.932 350.754C309.879 350.754 306.825 350.754 303.679 350.754Z" fill="#747374"/>
<path d="M120.294 295.239C123.348 295.239 126.401 295.239 129.547 295.239C129.547 298.848 129.547 302.456 129.547 306.174C133.156 306.174 136.765 306.174 140.483 306.174C140.483 309.782 140.483 313.391 140.483 317.109C139.928 317.109 139.373 317.109 138.801 317.109C138.801 314.055 138.801 311.002 138.801 307.856C135.192 307.856 131.583 307.856 127.865 307.856C127.865 304.248 127.865 300.639 127.865 296.921C125.366 296.921 122.868 296.921 120.294 296.921C120.294 296.366 120.294 295.811 120.294 295.239Z" fill="#E0DFE0"/>
<path d="M227.97 176.639C228.525 176.639 229.08 176.639 229.652 176.639C229.652 183.301 229.652 189.962 229.652 196.826C232.15 196.826 234.649 196.826 237.223 196.826C237.223 193.773 237.223 190.719 237.223 187.574C237.778 187.574 238.333 187.574 238.905 187.574C238.905 191.182 238.905 194.791 238.905 198.508C235.297 198.508 231.688 198.508 227.97 198.508C227.97 191.291 227.97 184.074 227.97 176.639Z" fill="#4E4C4C"/>
<path d="M255.73 156.452C256.84 156.452 257.951 156.452 259.095 156.452C259.095 163.113 259.095 169.775 259.095 176.639C256.041 176.639 252.987 176.639 249.841 176.639C249.841 173.03 249.841 169.422 249.841 165.704C250.396 165.704 250.952 165.704 251.524 165.704C251.524 168.757 251.524 171.811 251.524 174.957C253.467 174.957 255.41 174.957 257.412 174.957C257.412 169.127 257.412 163.298 257.412 157.293C256.857 157.015 256.302 156.737 255.73 156.452Z" fill="#ECECED"/>
<path d="M323.868 111.871C327.755 111.871 331.641 111.871 335.645 111.871C335.923 115.48 336.201 119.088 336.487 122.806C339.263 122.806 342.039 122.806 344.899 122.806C344.899 130.023 344.899 137.24 344.899 144.676C344.621 144.676 344.343 144.676 344.057 144.676C344.057 138.014 344.057 131.352 344.057 124.488C341.004 124.488 337.95 124.488 334.804 124.488C334.804 120.88 334.804 117.271 334.804 113.554C331.195 113.554 327.586 113.554 323.868 113.554C323.868 112.998 323.868 112.443 323.868 111.871Z" fill="#2E2F2E"/>
<path d="M323.868 142.993C324.423 142.993 324.979 142.993 325.551 142.993C325.551 146.324 325.551 149.655 325.551 153.087C326.391 153.077 327.232 153.067 328.097 153.057C329.183 153.05 330.268 153.042 331.387 153.034C332.47 153.025 333.553 153.015 334.669 153.005C337.328 153.087 337.328 153.087 338.169 153.928C338.255 156.006 338.287 158.054 338.274 160.131C338.272 160.736 338.271 161.34 338.269 161.963C338.23 166.886 337.908 171.749 337.328 176.639C337.05 176.639 336.773 176.639 336.487 176.639C336.487 169.422 336.487 162.205 336.487 154.769C332.6 154.769 328.714 154.769 324.71 154.769C324.432 150.883 324.154 146.997 323.868 142.993Z" fill="#2E2D2E"/>
<path d="M152.26 144.676C155.869 144.676 159.478 144.676 163.196 144.676C163.196 144.953 163.196 145.231 163.196 145.517C159.865 145.517 156.534 145.517 153.101 145.517C153.101 151.623 153.101 157.73 153.101 164.022C155.877 164.022 158.653 164.022 161.514 164.022C161.514 160.968 161.514 157.915 161.514 154.769C162.069 154.769 162.624 154.769 163.196 154.769C163.196 158.378 163.196 161.986 163.196 165.704C159.587 165.704 155.978 165.704 152.26 165.704C152.26 158.765 152.26 151.825 152.26 144.676Z" fill="#CFCFD0"/>
<path d="M251.524 296.921C254.022 296.921 256.521 296.921 259.095 296.921C259.095 299.42 259.095 301.918 259.095 304.492C256.596 304.492 254.098 304.492 251.524 304.492C251.524 301.993 251.524 299.495 251.524 296.921Z" fill="black"/>
<path d="M272.554 254.023C275.052 254.023 277.551 254.023 280.125 254.023C280.125 256.522 280.125 259.02 280.125 261.594C277.627 261.594 275.128 261.594 272.554 261.594C272.554 259.095 272.554 256.597 272.554 254.023Z" fill="#F6F6F8"/>
<path d="M215.351 174.957C215.629 175.512 215.907 176.067 216.193 176.639C220.079 176.639 223.965 176.639 227.97 176.639C227.97 183.856 227.97 191.073 227.97 198.508C227.414 198.508 226.859 198.508 226.287 198.508C226.287 191.847 226.287 185.185 226.287 178.321C222.678 178.321 219.069 178.321 215.351 178.321C215.351 177.211 215.351 176.1 215.351 174.957Z" fill="#D0D0D0"/>
<path d="M327.657 155.528C328.931 155.543 328.931 155.543 330.23 155.558C331.081 155.565 331.932 155.573 332.809 155.581C333.797 155.595 333.797 155.595 334.804 155.61C334.804 155.888 334.804 156.166 334.804 156.452C332.028 156.452 329.252 156.452 326.392 156.452C326.392 162.558 326.392 168.665 326.392 174.957C329.168 174.957 331.944 174.957 334.804 174.957C334.804 175.512 334.804 176.067 334.804 176.639C331.473 176.639 328.142 176.639 324.709 176.639C324.687 173.292 324.67 169.945 324.657 166.598C324.65 165.642 324.643 164.686 324.636 163.701C324.633 162.793 324.63 161.885 324.627 160.95C324.623 160.108 324.618 159.267 324.614 158.4C324.748 155.672 324.917 155.635 327.657 155.528Z" fill="#CFCECF"/>
<path d="M301.997 252.341C306.161 252.341 310.325 252.341 314.615 252.341C314.615 255.95 314.615 259.558 314.615 263.276C310.451 263.276 306.287 263.276 301.997 263.276C301.997 262.721 301.997 262.166 301.997 261.594C305.605 261.594 309.214 261.594 312.932 261.594C312.932 259.095 312.932 256.597 312.932 254.023C309.324 254.023 305.715 254.023 301.997 254.023C301.997 253.468 301.997 252.913 301.997 252.341Z" fill="#363736"/>
<path d="M172.449 121.124C176.613 121.124 180.777 121.124 185.068 121.124C185.068 121.679 185.068 122.234 185.068 122.806C181.459 122.806 177.85 122.806 174.132 122.806C174.132 126.415 174.132 130.023 174.132 133.741C170.523 133.741 166.914 133.741 163.196 133.741C163.196 133.186 163.196 132.631 163.196 132.059C166.25 132.059 169.303 132.059 172.449 132.059C172.449 128.45 172.449 124.842 172.449 121.124Z" fill="#565555"/>
<path d="M292.743 144.676C295.797 144.676 298.851 144.676 301.997 144.676C301.997 144.953 301.997 145.231 301.997 145.517C299.498 145.517 297 145.517 294.426 145.517C294.426 151.623 294.426 157.73 294.426 164.022C296.924 164.022 299.423 164.022 301.997 164.022C301.997 164.577 301.997 165.132 301.997 165.704C298.943 165.704 295.889 165.704 292.743 165.704C292.743 158.765 292.743 151.825 292.743 144.676Z" fill="#E2E2E3"/>
<path d="M174.132 370.941C177.741 370.941 181.349 370.941 185.068 370.941C185.068 374.55 185.068 378.158 185.068 381.876C188.121 381.876 191.175 381.876 194.321 381.876C194.321 382.431 194.321 382.987 194.321 383.559C190.712 383.559 187.103 383.559 183.385 383.559C183.385 379.95 183.385 376.342 183.385 372.624C180.332 372.624 177.278 372.624 174.132 372.624C174.132 372.069 174.132 371.513 174.132 370.941Z" fill="#D8D8D9"/>
<path d="M227.97 306.174C228.525 306.174 229.08 306.174 229.652 306.174C229.652 309.227 229.652 312.281 229.652 315.426C236.314 315.426 242.977 315.426 249.841 315.426C249.841 315.982 249.841 316.537 249.841 317.109C242.624 317.109 235.406 317.109 227.97 317.109C227.97 313.5 227.97 309.892 227.97 306.174Z" fill="#3D3D3E"/>
<path d="M163.196 349.913C172.239 349.808 172.239 349.808 174.132 350.754C174.132 353.807 174.132 356.861 174.132 360.007C170.523 360.007 166.914 360.007 163.196 360.007C163.196 356.676 163.196 353.345 163.196 349.913ZM164.878 350.754C164.878 353.252 164.878 355.751 164.878 358.324C167.377 358.324 169.875 358.324 172.449 358.324C172.449 355.826 172.449 353.328 172.449 350.754C169.951 350.754 167.452 350.754 164.878 350.754Z" fill="#414040"/>
<path d="M262.459 254.023C264.68 254.023 266.901 254.023 269.189 254.023C269.189 256.522 269.189 259.02 269.189 261.594C266.968 261.594 264.748 261.594 262.459 261.594C262.459 259.095 262.459 256.597 262.459 254.023Z" fill="#010101"/>
<path d="M163.196 252.341C163.751 252.341 164.306 252.341 164.878 252.341C164.878 255.394 164.878 258.448 164.878 261.594C167.377 261.594 169.875 261.594 172.449 261.594C172.449 258.54 172.449 255.487 172.449 252.341C173.005 252.341 173.56 252.341 174.132 252.341C174.132 255.95 174.132 259.558 174.132 263.276C170.523 263.276 166.914 263.276 163.196 263.276C163.196 259.667 163.196 256.059 163.196 252.341Z" fill="#5A595A"/>
<path d="M174.132 122.806C177.741 122.806 181.349 122.806 185.068 122.806C185.068 129.468 185.068 136.13 185.068 142.993C184.512 142.993 183.957 142.993 183.385 142.993C183.385 136.887 183.385 130.78 183.385 124.488C180.332 124.488 177.278 124.488 174.132 124.488C174.132 123.933 174.132 123.378 174.132 122.806Z" fill="#D2D1D2"/>
<path d="M301.997 132.059C306.716 132.059 311.435 132.059 316.297 132.059C316.297 135.112 316.297 138.165 316.297 141.311C318.796 141.589 321.294 141.866 323.868 142.152C323.868 142.43 323.868 142.707 323.868 142.993C320.815 142.993 317.761 142.993 314.615 142.993C314.615 139.94 314.615 136.887 314.615 133.741C310.451 133.741 306.287 133.741 301.997 133.741C301.997 133.186 301.997 132.631 301.997 132.059Z" fill="#242424"/>
<path d="M229.652 306.174C236.314 306.174 242.977 306.174 249.841 306.174C249.841 309.227 249.841 312.281 249.841 315.426C249.286 315.426 248.731 315.426 248.159 315.426C248.159 312.928 248.159 310.43 248.159 307.856C242.052 307.856 235.944 307.856 229.652 307.856C229.652 307.301 229.652 306.746 229.652 306.174Z" fill="#1B1A1A"/>
<path d="M174.132 241.406C178.851 241.406 183.57 241.406 188.432 241.406C188.432 241.684 188.432 241.962 188.432 242.247C184.268 242.247 180.104 242.247 175.814 242.247C175.814 245.023 175.814 247.799 175.814 250.659C178.868 250.659 181.921 250.659 185.068 250.659C185.068 251.214 185.068 251.769 185.068 252.341C181.459 252.341 177.85 252.341 174.132 252.341C174.132 248.733 174.132 245.124 174.132 241.406Z" fill="#343333"/>
<path d="M303.679 89.1606C307.843 89.1606 312.007 89.1606 316.297 89.1606C316.297 92.4915 316.297 95.8224 316.297 99.2542C318.796 99.2542 321.294 99.2542 323.868 99.2542C323.868 99.8093 323.868 100.364 323.868 100.936C320.815 100.936 317.761 100.936 314.615 100.936C314.615 97.6056 314.615 94.2747 314.615 90.8428C311.006 90.5653 307.397 90.2877 303.679 90.0017C303.679 89.7241 303.679 89.4465 303.679 89.1606Z" fill="#C5C5C5"/>
<path d="M172.449 144.676C173.005 144.676 173.56 144.676 174.132 144.676C174.132 148.562 174.132 152.448 174.132 156.451C170.801 156.451 167.469 156.451 164.037 156.451C164.037 158.95 164.037 161.448 164.037 164.022C163.76 164.022 163.482 164.022 163.196 164.022C163.196 160.968 163.196 157.915 163.196 154.769C166.25 154.769 169.303 154.769 172.449 154.769C172.449 151.438 172.449 148.107 172.449 144.676Z" fill="#727271"/>
<path d="M270.872 326.361C271.427 326.361 271.982 326.361 272.554 326.361C272.577 328.447 272.593 330.532 272.607 332.617C272.614 333.212 272.621 333.807 272.628 334.419C272.635 335.939 272.598 337.459 272.554 338.978C271.713 339.819 271.713 339.819 269.764 339.915C268.923 339.91 268.081 339.906 267.214 339.902C266.306 339.899 265.398 339.896 264.462 339.893C263.506 339.886 262.551 339.879 261.566 339.872C260.607 339.868 259.647 339.864 258.659 339.86C256.281 339.851 253.902 339.837 251.524 339.819C251.524 339.542 251.524 339.264 251.524 338.978C257.631 338.978 263.738 338.978 270.03 338.978C270.308 334.815 270.586 330.651 270.872 326.361Z" fill="#C5C6C6"/>
<path d="M121.135 279.258C121.413 279.258 121.69 279.258 121.976 279.258C121.976 283.976 121.976 288.695 121.976 293.557C124.475 293.557 126.973 293.557 129.547 293.557C129.547 294.112 129.547 294.667 129.547 295.239C126.494 295.239 123.44 295.239 120.294 295.239C120.271 292.733 120.255 290.227 120.241 287.721C120.234 287.006 120.227 286.291 120.22 285.555C120.217 284.874 120.215 284.194 120.212 283.493C120.207 282.863 120.203 282.233 120.198 281.584C120.294 280.099 120.294 280.099 121.135 279.258Z" fill="#2E2E2E"/>
<path d="M314.615 144.676C317.668 144.676 320.722 144.676 323.868 144.676C323.868 148.006 323.868 151.337 323.868 154.769C320.815 154.769 317.761 154.769 314.615 154.769C316.297 153.087 316.297 153.087 319.347 152.982C320.752 153.034 320.752 153.034 322.186 153.087C322.186 150.589 322.186 148.091 322.186 145.517C319.687 145.517 317.189 145.517 314.615 145.517C314.615 145.239 314.615 144.962 314.615 144.676Z" fill="#D3D3D3"/>
<path d="M163.196 360.007C166.805 360.007 170.414 360.007 174.132 360.007C174.132 363.615 174.132 367.224 174.132 370.941C173.577 370.941 173.021 370.941 172.449 370.941C172.449 367.888 172.449 364.835 172.449 361.689C169.396 361.689 166.342 361.689 163.196 361.689C163.196 361.134 163.196 360.579 163.196 360.007Z" fill="#BBBCBC"/>
<path d="M174.132 349.072C174.687 349.072 175.242 349.072 175.814 349.072C175.814 352.125 175.814 355.179 175.814 358.324C178.868 358.324 181.921 358.324 185.068 358.324C185.068 358.88 185.068 359.435 185.068 360.007C181.459 360.007 177.85 360.007 174.132 360.007C174.132 356.398 174.132 352.79 174.132 349.072Z" fill="#D8D8D9"/>
<path d="M120.294 295.239C123.348 295.239 126.401 295.239 129.547 295.239C129.547 299.403 129.547 303.566 129.547 307.856C128.992 307.856 128.437 307.856 127.865 307.856C127.865 304.248 127.865 300.639 127.865 296.921C125.366 296.921 122.868 296.921 120.294 296.921C120.294 296.366 120.294 295.811 120.294 295.239Z" fill="#D8D8D8"/>
<path d="M238.905 165.704C242.514 165.704 246.123 165.704 249.841 165.704C249.841 169.312 249.841 172.921 249.841 176.639C249.286 176.639 248.731 176.639 248.159 176.639C248.159 173.585 248.159 170.532 248.159 167.386C245.105 167.386 242.052 167.386 238.905 167.386C238.905 166.831 238.905 166.276 238.905 165.704Z" fill="#30302F"/>
<path d="M303.679 133.741C306.733 133.741 309.786 133.741 312.932 133.741C312.932 134.296 312.932 134.851 312.932 135.423C310.434 135.423 307.936 135.423 305.362 135.423C305.362 137.644 305.362 139.864 305.362 142.152C307.305 142.152 309.248 142.152 311.25 142.152C311.25 142.43 311.25 142.707 311.25 142.993C308.752 142.993 306.253 142.993 303.679 142.993C303.679 139.94 303.679 136.887 303.679 133.741Z" fill="#E5E6E6"/>
<path d="M185.068 370.941C185.623 370.941 186.178 370.941 186.75 370.941C186.75 373.995 186.75 377.048 186.75 380.194C189.248 380.194 191.747 380.194 194.321 380.194C194.321 380.749 194.321 381.304 194.321 381.876C191.267 381.876 188.214 381.876 185.068 381.876C185.068 378.268 185.068 374.659 185.068 370.941Z" fill="#3E3D3D"/>
<path d="M118.612 165.704C118.889 165.704 119.167 165.704 119.453 165.704C119.73 169.312 120.008 172.921 120.294 176.639C116.685 176.639 113.076 176.639 109.358 176.639C109.358 176.084 109.358 175.528 109.358 174.957C112.412 174.957 115.465 174.957 118.612 174.957C118.612 171.903 118.612 168.85 118.612 165.704Z" fill="#C7C7C8"/>
<path d="M303.679 405.428C304.234 405.428 304.789 405.428 305.362 405.428C305.362 407.649 305.362 409.869 305.362 412.157C309.109 411.741 309.109 411.741 312.932 411.316C312.932 412.149 312.932 412.982 312.932 413.839C309.879 413.839 306.825 413.839 303.679 413.839C303.679 411.064 303.679 408.288 303.679 405.428Z" fill="#2B2B29"/>
<path d="M227.97 296.921C228.247 296.921 228.525 296.921 228.811 296.921C229.088 299.975 229.366 303.028 229.652 306.174C226.043 306.174 222.434 306.174 218.716 306.174C218.716 305.619 218.716 305.064 218.716 304.492C221.77 304.492 224.823 304.492 227.97 304.492C227.97 301.993 227.97 299.495 227.97 296.921Z" fill="#5E5E5F"/>
<path d="M323.027 304.492C323.86 304.769 324.693 305.047 325.551 305.333C324.718 306.582 324.718 306.582 323.868 307.856C323.56 309.889 323.56 309.889 323.52 312.151C323.487 312.977 323.455 313.804 323.421 314.656C323.395 315.517 323.369 316.379 323.343 317.266C323.31 318.138 323.277 319.009 323.244 319.906C323.165 322.058 323.093 324.209 323.027 326.361C322.749 326.361 322.472 326.361 322.186 326.361C322.162 322.874 322.147 319.387 322.133 315.9C322.126 314.904 322.119 313.908 322.112 312.882C322.109 311.936 322.106 310.99 322.104 310.015C322.099 309.138 322.095 308.262 322.09 307.359C322.186 305.333 322.186 305.333 323.027 304.492Z" fill="#EBEDED"/>
<path d="M284.571 134.5C285.727 134.514 285.727 134.514 286.907 134.529C287.68 134.537 288.454 134.545 289.25 134.552C289.848 134.562 290.445 134.572 291.061 134.582C291.061 134.86 291.061 135.137 291.061 135.423C288.562 135.423 286.064 135.423 283.49 135.423C283.898 139.331 283.898 139.331 285.172 142.993C284.062 142.993 282.951 142.993 281.807 142.993C281.785 141.749 281.768 140.505 281.755 139.261C281.745 138.568 281.735 137.875 281.725 137.161C281.842 134.687 282.094 134.606 284.571 134.5Z" fill="#D9D9DA"/>
<path d="M303.679 350.754C304.512 351.032 305.345 351.309 306.203 351.595C305.925 353.816 305.648 356.037 305.362 358.324C307.86 358.324 310.358 358.324 312.932 358.324C312.932 358.602 312.932 358.88 312.932 359.166C309.879 359.166 306.825 359.166 303.679 359.166C303.679 356.39 303.679 353.614 303.679 350.754Z" fill="#141313"/>
<path d="M205.257 370.941C205.812 370.941 206.367 370.941 206.939 370.941C207.217 374.55 207.494 378.158 207.78 381.876C206.948 381.876 206.115 381.876 205.257 381.876C205.257 378.268 205.257 374.659 205.257 370.941Z" fill="#929392"/>
<path d="M170.767 149.722C171.322 149.722 171.877 149.722 172.449 149.722C172.449 151.388 172.449 153.053 172.449 154.769C169.396 154.769 166.342 154.769 163.196 154.769C164.878 153.087 164.878 153.087 167.928 152.982C169.333 153.034 169.333 153.034 170.767 153.087C170.767 151.977 170.767 150.866 170.767 149.722Z" fill="#E1E0E1"/>
<path d="M303.679 144.676C306.733 144.676 309.786 144.676 312.932 144.676C312.932 144.953 312.932 145.231 312.932 145.517C311.874 145.76 310.816 146.002 309.725 146.253C307.167 146.84 305.945 147.371 303.679 148.881C303.679 147.493 303.679 146.106 303.679 144.676Z" fill="#1B1B19"/>
<path d="M120.294 252.341C122.237 252.341 124.18 252.341 126.182 252.341C125.905 252.896 125.627 253.451 125.341 254.023C124.231 254.023 123.12 254.023 121.976 254.023C121.976 255.134 121.976 256.244 121.976 257.388C121.421 257.388 120.866 257.388 120.294 257.388C120.294 255.723 120.294 254.057 120.294 252.341Z" fill="#171616"/>
<path d="M251.524 198.508C254.022 198.508 256.521 198.508 259.095 198.508C257.412 200.191 257.412 200.191 255.204 200.296C254.545 200.261 253.885 200.226 253.206 200.191C252.929 201.023 252.651 201.856 252.365 202.714C252.087 202.714 251.81 202.714 251.524 202.714C251.524 201.326 251.524 199.938 251.524 198.508Z" fill="#ECECEC"/>
</g>
<defs>
<clipPath id="clip0_31_284">
<rect width="498" height="503" fill="white"/>
</clipPath>
</defs>
</svg>
